<?xml version="1.0" encoding="utf-8"?>
<!-- Generator: Adobe Illustrator 26.2.1, SVG Export Plug-In . SVG Version: 6.00 Build 0)  -->
<svg version="1.1" id="Layer_1" xmlns="http://www.w3.org/2000/svg" xmlns:xlink="http://www.w3.org/1999/xlink" x="0px" y="0px"
	 viewBox="0 0 428 2136.5" style="enable-background:new 0 0 428 2136.5;" xml:space="preserve">
<style type="text/css">
	.st0{opacity:0.78;}
	.st1{fill:#6D5341;}
	.st2{fill:#C19F87;}
	.st3{fill:#AFD079;}
	.st4{fill:#A5CA68;}
	.st5{fill:#AACD70;}
	.st6{fill:#9AC355;}
</style>
<g id="Layer_1_00000153675157064098978880000012107090250208182671_">
	<g id="a">
		<g id="b" class="st0">
		</g>
	</g>
	<g id="c">
		<g id="d">
			<g>
				<path id="e" class="st1" d="M245.4,2075.2c0,0,6.1,15.6,14.1,20.8c9.3,5.9,1.5,6.4-3,5.8c-4.5-0.6-12.4-4.7-15.4-8.4
					s-56.1,12.3-63,12.9s-14.7,1.8-15.8-0.4s7.5-4.4,10.5-12.1c3-7.7,5.5-21.8,7.2-24.6C183.6,2063.5,245.4,2075.2,245.4,2075.2
					L245.4,2075.2z"/>
				<path class="st1" d="M257.2,2101.9c-2.9-3.6-5.8-6.5-8.6-9.1c-0.7-0.6-1.2-1.5-1.7-2.4c-0.2-2.8-0.4-5.4-0.4-5.4v-0.3
					c-0.6-11.5-0.7-34.5-1.9-52.4c-0.6-8.1-0.6-9.4-0.8-26.1c-4.1,4.9-10,5-15,7.1c-10.2,4.3-18.5,5.4-28.8,2.2
					c-6.3-2-14.4-2.6-19.1-10.6c0.7,12.4,0,17.5,0.1,26.4c0.1,4.2-0.2,11.3-0.4,15.5c-0.7,11.5-0.1,15.9-2.4,26.8
					c-0.5,2.9-0.9,5.9-1.2,8.9c-0.3,2.6-0.6,5.2-0.6,7.8c-0.3,2.4-0.6,5.5-0.8,8.8c-0.5,8.4-4.6,10.4-9.8,12.1
					c-5.1,1.7-7.5,4.1-7.5,4.1s-10.2,8.6-3,6.2c3.5-1.2,13.9-5.7,18.2-5.8s7.8,0.1,12.4-3.1c4.6-3.2,3.7-5.3,11-4.2
					c4.4,0.7,5.9,4.7,2.9,14.4c-2.8,8.8-0.7,15.1,3.2,14.2c1.4-0.3,6.3-16.3,13.4-22.6c2.1-1.8,2.8-2.6,5.9-4.3
					c4.2-2.3,7.4-0.5,14.4,4.6c5.4,3.9,6.8,6.1,9.1,7.8s4.7-1.4,1.9-5.4s-3.8-3.4-6.6-10.9s4.3-1.7,10,2.1c6.1,4,16.8,6,19.5,5.5
					C272.9,2113.2,260.2,2105.5,257.2,2101.9L257.2,2101.9z"/>
				<g id="f">
					<path class="st2" d="M230.7,2014.2c-6.2,2.2-12.6,3.6-18.9,4.2c-2.8,0-17.6-2.1-20.9-4.4c-4.3-2.9-10-7.9-10-9
						c-0.1-1.6,4-0.9,5.8-1.3c7.6-1.4,11.9-1.7,17.4-2.2c9.4-0.8,9-1.2,19.6,0c1.4,0.2,13.6,2,15.1,2.5c3.6,1.3,5,1.6,4.9,2.1
						c0,0.1,0,0.2-0.1,0.3c-3,3.9-9.6,6.2-13.1,7.9"/>
					<path class="st1" d="M214.4,2000.7c-2.7,0-4.9,0.3-10.1,0.8c-2.8,0.3-5.2,0.4-7.8,0.8c-2,0.6-4,1.2-6,2.1l-1.7,0.7
						c8.6,2.6,17.3,3.9,26,3.9h2.5c3.2-0.2,6.6,0.3,9.4-3c-4.5-1.4-9.1-2.1-13.7-2.2c-1.7,0-3.4,0.1-5,0.4h-0.4l0,0l5.1,1.1
						l-4.6-1.1h2.7c4.9-0.1,9.7,0.6,14.5,2c-2.5,2-5.4,1.5-8.1,1.7h-1.4c-2.5,0-5-0.1-7.5-0.3c-5.3-0.4-10.6-1.4-15.9-2.8
						c3.6-1.2,7.2-2.1,10.8-2.5c3.4-0.4,6.7-0.6,10.1-0.6c7.3,0,14.5,0.8,21.7,2.5c0.3,0.1,2.6,0.9,1.7,1.6
						c-9.1,2.7-21,7.2-32.1,7.2c-7.9,0-15.3-2.2-21-9c6,7.3,13.8,9.7,21.9,9.7c10.8,0,22.4-4.3,31.4-6.9c0.1-0.1,0.2-0.1,0.3-0.3
						c0.1-0.1,0.2-0.3,0.2-0.4c0.1-0.2,0.1-0.4,0.1-0.6s0-0.4,0-0.6c-0.2-0.5-0.4-0.9-0.7-1.1c-0.3-0.3-0.6-0.4-0.9-0.5
						c-4.2-0.8-11.1-1.8-12.1-2C219.1,2000.9,216.5,2000.7,214.4,2000.7L214.4,2000.7z"/>
				</g>
			</g>
		</g>
	</g>
	<g id="g">
	</g>
	<g id="h">
		<g id="i">
		</g>
		<g id="j">
		</g>
	</g>
	<g id="k">
		<g id="l">
		</g>
		<g id="m">
		</g>
	</g>
</g>
<g id="OldGrowth_x5F_Top">
	<g id="ag">
		<path class="st3" d="M208.1,1889.8c0,0-55.6,125.8-98,146.2c-42.4,20.4,49.4-12.9,54.7-21.1c5.3-8.2-20.7,51.3-13.6,66.4
			c0,0,25.5-32,38.7-50.3c1.7-2.4,25.5,56.2,27.9,53.6c0,0,2.1-57.7,16.4-42.4c16.7,18,50.7,31.8,50.7,31.8s-33.3-54-33.3-67
			c0,0,42.3,32.5,61.6,35.9C313.3,2042.8,211.7,1912.9,208.1,1889.8L208.1,1889.8L208.1,1889.8z"/>
		<path class="st4" d="M169.6,1944.3c0,0-31.4,37.6-50.1,45.7c-18.7,8.3,42.2-9.9,45.4-14.9s11.4,4.5,10.7,22.7
			c-0.8,18.2,14.9,9.1,21.5-11.5c0,0,10.7-19,10.4-22.2c-0.3-3.3,21.1,39.9,18.1,49.8c0,0,23.7-11.4,20.3-38.4l-1.3-13.5
			c0,0,10.4,18.2,36.2,32.6l27.9,17.3c0,0-37.8-42-50.6-61.1c-12.8-19-62.9-52-62.9-52L169.6,1944.3L169.6,1944.3L169.6,1944.3z"/>
		<path class="st5" d="M176.9,1912.3c0,0-26.1,30.2-41.7,36.7c-15.6,6.7,35.1-7.9,37.8-12c2.6-4,4.3,8.6,3.7,23.2
			c-0.7,14.6,17.5,2.3,23.2-14.3c0,0,9-15.2,8.6-17.9c-0.3-2.6,9.8,24.5,7.4,32.5c0,0,17.3,8.3,19.2-9.9l7-17.3
			c0,0,5.8,7.7,27.3,19.4l23.2,13.9c0,0-31.4-33.8-42-49.1c-10.6-15.2-52.4-41.7-52.4-41.7L176.9,1912.3L176.9,1912.3L176.9,1912.3z
			"/>
		<path class="st6" d="M209,1826c0,0-31.4,80.6-55.3,93.8c-23.8,13.1,27.9-8.3,30.9-13.5c3-5.2-4,16.1,2,31.4
			c0,0,14.4-43.2,19.5-49.3c0,0,17.4,21.3,16.5,37.1c-1,15.7-0.5,23.5-0.5,23.5s9-40.1,9-48.4c0,0,26.4,21.3,37.3,23.5
			C268.3,1924.1,211,1840.9,209,1826L209,1826L209,1826z"/>
	</g>
</g>
</svg>
