<?xml version="1.0" encoding="UTF-8"?><svg xmlns="http://www.w3.org/2000/svg" viewBox="0 0 428 926"><defs><style>.ai{fill:#84a749;}.aj{fill:#c19f87;}.ak{fill:#e0a54f;}.al{fill:#715847;}.am{fill:#6d5341;}.an{opacity:.78;}</style></defs><g id="a"><g id="b" class="an"/></g><g id="c"><g id="d"><g><path id="e" class="am" d="M222.16,899.42s2.6,6.7,6.06,8.91c3.99,2.55,.64,2.73-1.27,2.47s-5.31-2-6.59-3.6-24.06,5.27-26.99,5.55-6.29,.78-6.75-.17,3.2-1.9,4.49-5.2,2.35-9.36,3.09-10.54c1.48-2.4,27.97,2.59,27.97,2.59Z"/><path class="am" d="M227.24,910.86c-1.26-1.55-2.48-2.77-3.68-3.88-.29-.27-.53-.63-.71-1.04-.09-1.18-.18-2.32-.18-2.32v-.14c-.25-4.94-.3-14.77-.82-22.47-.24-3.45-.27-4.05-.34-11.16-1.75,2.1-4.28,2.13-6.41,3.02-4.38,1.84-7.91,2.29-12.33,.94-2.71-.85-6.17-1.1-8.18-4.55,.3,5.3-.02,7.49,.06,11.32,.05,1.82-.09,4.85-.19,6.66-.28,4.95-.06,6.83-1.04,11.46-.23,1.25-.4,2.53-.52,3.84-.15,1.1-.24,2.23-.28,3.36-.12,1.05-.25,2.34-.34,3.77-.23,3.59-1.99,4.46-4.19,5.18-2.19,.72-3.2,1.74-3.2,1.74,0,0-4.38,3.7-1.29,2.64,1.5-.51,5.95-2.44,7.79-2.48,1.83-.04,3.36,.06,5.32-1.33,1.96-1.39,1.57-2.29,4.7-1.81,1.9,.29,2.55,2.02,1.23,6.19-1.19,3.78-.3,6.47,1.35,6.09,.6-.14,2.69-7,5.72-9.66,.89-.78,1.18-1.09,2.52-1.84,1.82-1,3.18-.2,6.16,1.98,2.31,1.69,2.92,2.62,3.9,3.33,.98,.71,2-.62,.8-2.32-1.2-1.71-1.63-1.46-2.81-4.69s1.83-.73,4.29,.88c2.61,1.71,7.18,2.59,8.36,2.35,1.03-.21-4.43-3.51-5.69-5.06Z"/><g id="f"><path class="aj" d="M215.88,873.28c-2.68,.94-5.38,1.54-8.11,1.8-1.21,0-7.54-.91-8.95-1.88-1.85-1.26-4.27-3.39-4.27-3.87-.03-.69,1.71-.41,2.5-.55,3.28-.58,5.08-.72,7.47-.94,4.04-.36,3.85-.53,8.41,0,.6,.08,5.84,.85,6.46,1.08,1.56,.57,2.13,.67,2.11,.88,0,.05,.02,.08-.04,.15-1.27,1.69-4.09,2.65-5.62,3.39"/><path class="am" d="M208.86,867.52c-1.16,0-2.1,.14-4.33,.34-1.18,.11-2.22,.19-3.36,.33-.86,.24-1.72,.53-2.57,.9l-.73,.3c3.68,1.1,7.4,1.67,11.12,1.69h1.08c1.35-.09,2.82,.14,4.01-1.28-1.94-.58-3.9-.89-5.86-.93-.73,0-1.45,.05-2.16,.18h-.18l2.18,.47-1.95-.47h1.16c2.08-.02,4.17,.26,6.23,.85-1.06,.85-2.31,.65-3.45,.73h-.59c-1.08,0-2.16-.05-3.23-.14-2.28-.19-4.56-.6-6.81-1.21,1.53-.52,3.08-.88,4.63-1.07,1.44-.16,2.88-.24,4.33-.24,3.11,0,6.22,.36,9.31,1.07,.13,.05,1.1,.37,.74,.69-3.89,1.14-8.98,3.07-13.73,3.07-3.36,0-6.55-.97-9.01-3.85,2.58,3.13,5.9,4.17,9.39,4.17,4.64,0,9.58-1.83,13.44-2.95,.05-.02,.09-.06,.12-.11,.04-.05,.07-.12,.09-.19,.02-.07,.04-.16,.04-.24,0-.09,0-.17-.02-.25-.07-.2-.17-.37-.28-.49-.11-.12-.24-.19-.37-.21-1.79-.32-4.74-.75-5.18-.85-2.05-.19-3.16-.28-4.08-.28Z"/></g></g></g><g id="g"><g><path class="am" d="M221.52,874.71c.05-2.59-.05-5.34,0-8.31,0-.54,.13-.75,.04-4.51,.1-2.27,.11-4.71,.11-4.71l.08-6.88c-.14-6.75-.15-3.54,0-11.21,.06-3.47,0-2.96-.06-10.08-1.75,2.1-2.65,2.44-4.78,3.33-4.38,1.84-7.91,2.29-12.33,.94-2.71-.85-6.71-1.28-8.72-4.73-.21,4.37-.45,7.51-.55,11.33-.06,2.28-.25,4.53-.28,6.33-.1,5.64-.07,3.94-.32,11.27-.04,1.28,.11,3.21,0,4.52-.15,1.1-.07,2-.12,3.13,.04,3.09-.01,2-.03,3.43-.03,3.95,.11,5.43,.17,8.28"/><g id="h"><path class="am" d="M216.62,832.92c-2.68,.94-4.83,1.22-7.55,1.48-1.21,0-7.79-.79-9.19-1.76-1.85-1.26-4.02-3.5-4.02-3.99-.03-.69,1.71-.41,2.5-.55,3.28-.58,5.08-.72,7.47-.94,4.04-.36,3.85-.53,8.41,0,.6,.08,5.84,.85,6.46,1.08,1.92,.7,.59,2.24,.21,2.62-1.27,1.69-2.23,1.06-3.75,1.8"/><path class="am" d="M210.17,826.84c-1.16,0-2.1,.14-4.33,.34-1.18,.11-2.22,.19-3.36,.33-.86,.24-1.72,.53-2.57,.9l-.73,.3c3.68,1.1,7.4,1.67,11.12,1.69h1.08c1.35-.09,2.82,.14,4.01-1.28-1.94-.58-3.9-.89-5.86-.93-.73,0-1.45,.05-2.16,.18h-.18l2.18,.47-1.95-.47h1.16c2.08-.02,4.17,.26,6.23,.85-1.06,.85-2.31,.65-3.45,.73h-.59c-1.08,0-2.16-.05-3.23-.14-2.28-.19-4.56-.6-6.81-1.21,1.53-.52,3.08-.88,4.63-1.07,1.44-.16,2.88-.24,4.33-.24,3.11,0,6.22,.36,9.31,1.07,.13,.05,1.1,.37,.74,.69-3.89,1.14-8.98,3.07-13.73,3.07-3.36,0-6.55-.97-9.01-3.85,2.58,3.13,5.9,4.17,9.39,4.17,4.64,0,9.58-1.83,13.44-2.95,.05-.02,.09-.06,.12-.11,.04-.05,.07-.12,.09-.19,.02-.07,.04-.16,.04-.24,0-.09,0-.17-.02-.25-.07-.2-.17-.37-.28-.49-.11-.12-.24-.19-.37-.21-1.79-.32-4.74-.75-5.18-.85-2.05-.19-3.16-.28-4.08-.28Z"/></g></g><g id="i"><path class="aj" d="M216.39,832.36c-2.58,.94-5.18,1.54-7.8,1.8-1.16,0-7.25-.91-8.61-1.88-1.78-1.26-4.1-3.39-4.1-3.87-.03-.69,1.64-.41,2.41-.55,3.15-.58,4.89-.72,7.19-.94,3.89-.36,3.7-.53,8.1,0,.58,.08,5.62,.85,6.22,1.08,1.5,.57,2.05,.67,2.03,.88,0,.05,.02,.08-.03,.15-1.22,1.69-3.94,2.65-5.41,3.39"/><path class="am" d="M209.65,826.6c-1.12,0-2.02,.14-4.16,.34-1.13,.11-2.13,.19-3.23,.33-.83,.24-1.65,.53-2.47,.9l-.71,.3c3.54,1.1,7.12,1.67,10.71,1.69h1.04c1.3-.09,2.71,.14,3.86-1.28-1.87-.58-3.75-.89-5.64-.93-.7,0-1.4,.05-2.08,.18h-.17l2.1,.47-1.87-.47h1.12c2.01-.02,4.01,.26,5.99,.85-1.02,.85-2.22,.65-3.32,.73h-.56c-1.04,0-2.07-.05-3.11-.14-2.19-.19-4.38-.6-6.56-1.21,1.47-.52,2.96-.88,4.46-1.07,1.38-.16,2.77-.24,4.16-.24,3,0,5.99,.36,8.96,1.07,.13,.05,1.06,.37,.72,.69-3.74,1.14-8.64,3.07-13.22,3.07-3.24,0-6.31-.97-8.67-3.85,2.48,3.13,5.68,4.17,9.04,4.17,4.47,0,9.22-1.83,12.94-2.95,.04-.02,.08-.06,.12-.11,.04-.05,.07-.12,.09-.19,.02-.07,.04-.16,.04-.24,0-.09,0-.17-.02-.25-.07-.2-.16-.37-.27-.49-.11-.12-.23-.19-.36-.21-1.72-.32-4.56-.75-4.98-.85-1.98-.19-3.04-.28-3.93-.28Z"/></g></g><g id="j"><g><path class="am" d="M221.8,838.08c.05-2.59-.09-40.09-.04-43.07,0-.54,.13-.75,.04-4.51,.1-2.27,.11-4.71,.11-4.71v-6.75c-.14-6.75-.11-2.43,.07-11.35,.07-3.47,0-2.96-.06-10.08-1.75,2.1-2.65,2.44-4.78,3.33-4.38,1.84-7.91,2.29-12.33,.94-2.71-.85-6.71-1.28-8.72-4.73-.21,4.37-.24,7.1-.34,10.93-.06,2.28-.11,3.77-.15,5.58-.1,5.64,.06,2.74-.19,10.07-.04,1.28,.05,4.16-.05,6.14-.03,2.23,0,2.31-.05,3.44,.04,3.09,.03,2.6,.02,4.03-.03,3.95-.05,39.36,.01,42.21"/><g id="k"><path class="am" d="M216.93,761.54c-2.68,.94-4.83,1.22-7.55,1.48-1.21,0-7.79-.79-9.19-1.76-1.85-1.26-4.02-3.5-4.02-3.99-.03-.69,1.71-.41,2.5-.55,3.28-.58,5.08-.72,7.47-.94,4.04-.36,3.85-.53,8.41,0,.6,.08,5.84,.85,6.46,1.08,.48,.18,.7,.21,.82,.47,.32,.69-.33,1.86-.61,2.15-1.27,1.69-2.23,1.06-3.75,1.8"/><path class="am" d="M210.47,755.46c-1.16,0-2.1,.14-4.33,.34-1.18,.11-2.22,.19-3.36,.33-.86,.24-1.72,.53-2.57,.9l-.73,.3c3.68,1.1,7.4,1.67,11.12,1.69h1.08c1.35-.09,2.82,.14,4.01-1.28-1.94-.58-3.9-.89-5.86-.93-.73,0-1.45,.05-2.16,.18h-.18l2.18,.47-1.95-.47h1.16c2.08-.02,4.17,.26,6.23,.85-1.06,.85-2.31,.65-3.45,.73h-.59c-1.08,0-2.16-.05-3.23-.14-2.28-.19-4.56-.6-6.81-1.21,1.53-.52,3.08-.88,4.63-1.07,1.44-.16,2.88-.24,4.33-.24,3.11,0,6.22,.36,9.31,1.07,.13,.05,1.1,.37,.74,.69-3.89,1.14-8.98,3.07-13.73,3.07-3.36,0-6.55-.97-9.01-3.85,2.58,3.13,5.9,4.17,9.39,4.17,4.64,0,9.58-1.83,13.44-2.95,.05-.02,.09-.06,.12-.11,.04-.05,.07-.12,.09-.19,.02-.07,.04-.16,.04-.24,0-.09,0-.17-.02-.25-.07-.2-.17-.37-.28-.49-.11-.12-.24-.19-.37-.21-1.79-.32-4.74-.75-5.18-.85-2.05-.19-3.16-.28-4.08-.28Z"/></g></g><path class="am" d="M220.1,808.16s5.04,1.96,10.28-4.26c2.42-2.88,5.25-4.55,7.15-6.11,2.21-1.8,2.8-2.07,3.8-4.12,2.16-4.43,3.71-9.53,3.85-4.35,.12,4.55-5.97,10.3-5.97,10.3,0,0,1.82,.55,5.18-.62,3.13-1.09,3.85-1.56,4.63-1.56s-1.54,2.48-5.59,3.42-8.59,3.99-9.53,6.95-14.99,13.55-14.99,13.55l1.18-13.19Z"/><g><path class="ai" d="M239.27,805.08s-.25-1.74,1.86-2.82,2.14-.69,2.14-.69c0,0-.19,2.86-1.81,3.29s-2.19,.21-2.19,.21Z"/><path class="ai" d="M247.41,802.44s-1.55-.18-2-2.24-.11-1.99-.11-1.99c0,0,2.41,.81,2.42,2.3s-.31,1.93-.31,1.93Z"/><path class="ai" d="M242.54,800.89s.02-1.91,2.48-2.71,2.41-.38,2.41-.38c0,0-.69,3.04-2.5,3.23s-2.39-.14-2.39-.14Z"/><path class="ai" d="M239.14,799.14s.59-1.47,2.73-1.36,1.98,.43,1.98,.43c0,0-1.44,2.15-2.91,1.76s-1.81-.82-1.81-.82Z"/><path class="ai" d="M243.18,796.25s-1.16-1.49,.24-3.62,1.62-1.78,1.62-1.78c0,0,1.34,2.77,.06,4.03s-1.93,1.36-1.93,1.36Z"/><path class="ai" d="M244.34,791.32s-1.55-1.02-.91-3.43,.95-2.17,.95-2.17c0,0,2.11,2.15,1.33,3.73s-1.36,1.87-1.36,1.87Z"/><path class="ai" d="M243.52,796.49s-1.97,.06-2.9-2.44-.5-2.47-.5-2.47c0,0,3.16,.58,3.44,2.44s-.04,2.47-.04,2.47Z"/><path class="ai" d="M236.67,800.64s-1.17-1.37,.07-3.46,1.47-1.77,1.47-1.77c0,0,1.4,2.59,.24,3.85s-1.78,1.39-1.78,1.39Z"/></g><g id="l"><path class="aj" d="M216.67,760.75c-2.58,.94-5.18,1.54-7.8,1.8-1.16,0-7.25-.91-8.61-1.88-1.78-1.26-4.1-3.39-4.1-3.87-.03-.69,1.64-.41,2.41-.55,3.15-.58,4.89-.72,7.19-.94,3.89-.36,3.7-.53,8.1,0,.58,.08,5.62,.85,6.22,1.08,1.5,.57,2.05,.67,2.03,.88,0,.05,.02,.08-.03,.15-1.22,1.69-3.94,2.65-5.41,3.39"/><path class="am" d="M209.92,755c-1.12,0-2.02,.14-4.16,.34-1.13,.11-2.13,.19-3.23,.33-.83,.24-1.65,.53-2.47,.9l-.71,.3c3.54,1.1,7.12,1.67,10.71,1.69h1.04c1.3-.09,2.71,.14,3.86-1.28-1.87-.58-3.75-.89-5.64-.93-.7,0-1.4,.05-2.08,.18h-.17l2.1,.47-1.87-.47h1.12c2.01-.02,4.01,.26,5.99,.85-1.02,.85-2.22,.65-3.32,.73h-.56c-1.04,0-2.07-.05-3.11-.14-2.19-.19-4.38-.6-6.56-1.21,1.47-.52,2.96-.88,4.46-1.07,1.38-.16,2.77-.24,4.16-.24,3,0,5.99,.36,8.96,1.07,.13,.05,1.06,.37,.72,.69-3.74,1.14-8.64,3.07-13.22,3.07-3.24,0-6.31-.97-8.67-3.85,2.48,3.13,5.68,4.17,9.04,4.17,4.47,0,9.22-1.83,12.94-2.95,.04-.02,.08-.06,.12-.11,.04-.05,.07-.12,.09-.19,.02-.07,.04-.16,.04-.24,0-.09,0-.17-.02-.25-.07-.2-.16-.37-.27-.49-.11-.12-.23-.19-.36-.21-1.72-.32-4.56-.75-4.98-.85-1.98-.19-3.04-.28-3.93-.28Z"/></g></g><g id="m"><g><path class="am" d="M222,763.62c.05-2.59,.06-21.07,.11-24.05,0-.54,.13-.75,.04-4.51,.1-2.27,.11-4.71,.11-4.71v-6.75c-.14-6.75-.11-2.43,.07-11.35,.07-3.47,0-2.96-.06-10.08-1.75,2.1-2.65,2.44-4.78,3.33-4.38,1.84-7.91,2.29-12.33,.94-2.71-.85-6.71-1.28-8.72-4.73-.21,4.37-.24,7.1-.34,10.93-.06,2.28-.11,3.77-.15,5.58-.1,5.64,.06,2.74-.19,10.07-.04,1.28,.05,4.16-.05,6.14-.03,2.23,0,2.31-.05,3.44,.04,3.09,.03,2.6,.02,4.03-.03,3.95,.27,18.57,.33,21.42"/><g id="n"><path class="am" d="M217.29,706.11c-2.68,.94-4.83,1.22-7.55,1.48-1.21,0-7.79-.79-9.19-1.76-1.85-1.26-4.02-3.5-4.02-3.99-.03-.69,1.71-.41,2.5-.55,3.28-.58,5.08-.72,7.47-.94,4.04-.36,3.85-.53,8.41,0,.6,.08,5.84,.85,6.46,1.08,1.92,.7,.59,2.24,.21,2.62-1.27,1.69-2.23,1.06-3.75,1.8"/><path class="am" d="M210.83,700.03c-1.16,0-2.1,.14-4.33,.34-1.18,.11-2.22,.19-3.36,.33-.86,.24-1.72,.53-2.57,.9l-.73,.3c3.68,1.1,7.4,1.67,11.12,1.69h1.08c1.35-.09,2.82,.14,4.01-1.28-1.94-.58-3.9-.89-5.86-.93-.73,0-1.45,.05-2.16,.18h-.18l2.18,.47-1.95-.47h1.16c2.08-.02,4.17,.26,6.23,.85-1.06,.85-2.31,.65-3.45,.73h-.59c-1.08,0-2.16-.05-3.23-.14-2.28-.19-4.56-.6-6.81-1.21,1.53-.52,3.08-.88,4.63-1.07,1.44-.16,2.88-.24,4.33-.24,3.11,0,6.22,.36,9.31,1.07,.13,.05,1.1,.37,.74,.69-3.89,1.14-8.98,3.07-13.73,3.07-3.36,0-6.55-.97-9.01-3.85,2.58,3.13,5.9,4.17,9.39,4.17,4.64,0,9.58-1.83,13.44-2.95,.05-.02,.09-.06,.12-.11,.04-.05,.07-.12,.09-.19,.02-.07,.04-.16,.04-.24,0-.09,0-.17-.02-.25-.07-.2-.17-.37-.28-.49-.11-.12-.24-.19-.37-.21-1.79-.32-4.74-.75-5.18-.85-2.05-.19-3.16-.28-4.08-.28Z"/></g></g><path class="am" d="M192.86,753.24c-.06-.08-2.8-3.55-2.84-3.63-1.83-3.31-2.04-4.22-6.26-9.12-4.63-5.38-2-3.25-6.91-8.02-.02-.02-.72-.87-.74-.9l-1.27-1.52c-.48-.61,.83-.34,1.4,.18,.16,.15,.6,.68,.77,.85,.99,.99,2.55,2.12,3.79,3.44,.48,.51,1.31-.02,1.04-.67-1.07-2.54-2.47-6.2-3.46-10.09-.02-.07-.2-.84-.22-.91-.19-.77,.67,0,.95,.73,1.71,4.44,4.39,11.35,6.31,12.98,8.06,6.84,8.88,11.25,13.23,9.04,2.7-1.37-.23,9.47-.39,10.23-.01,.06,2.33,2.56,2.3,2.61-.28,.51-3.42,.45-7.69-5.21Z"/><g><path class="ai" d="M180.01,739.66s-1-1.63,.65-3.61,1.83-1.61,1.83-1.61c0,0,1.03,2.93-.39,4.06s-2.09,1.15-2.09,1.15Z"/><path class="ai" d="M177.28,736.56s-1.52-1.06-.83-3.46,1-2.14,1-2.14c0,0,2.06,2.2,1.24,3.76s-1.41,1.84-1.41,1.84Z"/><path class="ai" d="M181.09,734.87s-1.8-.35-2.13-2.81,.05-2.34,.05-2.34c0,0,2.75,1.17,2.62,2.92s-.54,2.23-.54,2.23Z"/><path class="ai" d="M177.17,728.48s.36-1.46,2.38-1.64,1.91,.13,1.91,.13c0,0-1.07,2.2-2.49,2.03s-1.8-.53-1.8-.53Z"/><path class="ai" d="M177.44,727.17s.28-1.41,2.2-1.65,1.83,.05,1.83,.05c0,0-.93,2.14-2.29,2.04s-1.74-.44-1.74-.44Z"/></g><g id="o"><path class="aj" d="M217.03,705.32c-2.58,.94-5.18,1.54-7.8,1.8-1.16,0-7.25-.91-8.61-1.88-1.78-1.26-4.1-3.39-4.1-3.87-.03-.69,1.64-.41,2.41-.55,3.15-.58,4.89-.72,7.19-.94,3.89-.36,3.7-.53,8.1,0,.58,.08,5.62,.85,6.22,1.08,1.5,.57,2.05,.67,2.03,.88,0,.05,.02,.08-.03,.15-1.22,1.69-3.94,2.65-5.41,3.39"/><path class="am" d="M210.28,699.56c-1.12,0-2.02,.14-4.16,.34-1.13,.11-2.13,.19-3.23,.33-.83,.24-1.65,.53-2.47,.9l-.71,.3c3.54,1.1,7.12,1.67,10.71,1.69h1.04c1.3-.09,2.71,.14,3.86-1.28-1.87-.58-3.75-.89-5.64-.93-.7,0-1.4,.05-2.08,.18h-.17l2.1,.47-1.87-.47h1.12c2.01-.02,4.01,.26,5.99,.85-1.02,.85-2.22,.65-3.32,.73h-.56c-1.04,0-2.07-.05-3.11-.14-2.19-.19-4.38-.6-6.56-1.21,1.47-.52,2.96-.88,4.46-1.07,1.38-.16,2.77-.24,4.16-.24,3,0,5.99,.36,8.96,1.07,.13,.05,1.06,.37,.72,.69-3.74,1.14-8.64,3.07-13.22,3.07-3.24,0-6.31-.97-8.67-3.85,2.48,3.13,5.68,4.17,9.04,4.17,4.47,0,9.22-1.83,12.94-2.95,.04-.02,.08-.06,.12-.11,.04-.05,.07-.12,.09-.19,.02-.07,.04-.16,.04-.24,0-.09,0-.17-.02-.25-.07-.2-.16-.37-.27-.49-.11-.12-.23-.19-.36-.21-1.72-.32-4.56-.75-4.98-.85-1.98-.19-3.04-.28-3.93-.28Z"/></g></g><g id="p"><g><path class="am" d="M222.31,709.94c.05-2.59,.05-26.31,.11-29.29,0-.54,.13-.75,.04-4.51,.1-2.27,.11-4.71,.11-4.71v-6.75c-.14-6.75-.11-2.43,.07-11.35,.07-3.47,0-2.96-.06-10.08-1.75,2.1-2.65,2.44-4.78,3.33-4.38,1.84-7.91,2.29-12.33,.94-2.71-.85-6.71-1.28-8.72-4.73-.21,4.37-.24,7.1-.34,10.93-.06,2.28-.11,3.77-.15,5.58-.1,5.64,.06,2.74-.19,10.07-.04,1.28,.05,4.16-.05,6.14-.03,2.23,0,2.31-.05,3.44,.04,3.09,.03,2.6,.02,4.03-.03,3.95,.06,27.56,.12,30.41"/><g id="q"><path class="am" d="M217.59,647.18c-2.68,.94-4.83,1.22-7.55,1.48-1.21,0-7.79-.79-9.19-1.76-1.85-1.26-4.02-3.5-4.02-3.99-.03-.69,1.71-.41,2.5-.55,3.28-.58,5.08-.72,7.47-.94,4.04-.36,3.85-.53,8.41,0,.6,.08,5.84,.85,6.46,1.08,1.92,.7,.59,2.24,.21,2.62-1.27,1.69-2.23,1.06-3.75,1.8"/><path class="am" d="M211.14,641.1c-1.16,0-2.1,.14-4.33,.34-1.18,.11-2.22,.19-3.36,.33-.86,.24-1.72,.53-2.57,.9l-.73,.3c3.68,1.1,7.4,1.67,11.12,1.69h1.08c1.35-.09,2.82,.14,4.01-1.28-1.94-.58-3.9-.89-5.86-.93-.73,0-1.45,.05-2.16,.18h-.18l2.18,.47-1.95-.47h1.16c2.08-.02,4.17,.26,6.23,.85-1.06,.85-2.31,.65-3.45,.73h-.59c-1.08,0-2.16-.05-3.23-.14-2.28-.19-4.56-.6-6.81-1.21,1.53-.52,3.08-.88,4.63-1.07,1.44-.16,2.88-.24,4.33-.24,3.11,0,6.22,.36,9.31,1.07,.13,.05,1.1,.37,.74,.69-3.89,1.14-8.98,3.07-13.73,3.07-3.36,0-6.55-.97-9.01-3.85,2.58,3.13,5.9,4.17,9.39,4.17,4.64,0,9.58-1.83,13.44-2.95,.05-.02,.09-.06,.12-.11,.04-.05,.07-.12,.09-.19,.02-.07,.04-.16,.04-.24,0-.09,0-.17-.02-.25-.07-.2-.17-.37-.28-.49-.11-.12-.24-.19-.37-.21-1.79-.32-4.74-.75-5.18-.85-2.05-.19-3.16-.28-4.08-.28Z"/></g></g><polygon class="am" points="221.76 691.05 233.78 684.14 233.91 686.32 221.24 697.61 217.14 695.67 221.76 691.05"/><path class="ak" d="M223.45,694.4c-1.18-1.06-2.88,1.03-2.25,2.29s.28,2.96,.74,5.38,1.14,4.02,1.38,3.3c.38-1.12,.5-4.45-.49-6.87-.91-2.23,1.89-2.97,.62-4.1Z"/><path class="al" d="M213.49,674.86c.27-.25,.64,.1,.64,.6s-.02,1.2,.31,.93,.89-.29,.89-.17-.06,.1,.17,.12,.35,.08,.56,.27,.02,.37,.21,.19,.39-.81,.6-.66,.04,.12,.21,0,.02-.48,.19-.39,.17-.02,.27-.08-.33,.43,.14,.72,1.28,.48,1.65,1.05,.43,1.14,.81,1.3,.52-.06,.45,.31-.19,.85,.08,.89,.45,.12,.27,.29-.52-.04-.19,.17,.41-.19,.33,.21,0,.81,.14,.87,.1,0,.08,.31,.02-.45-.02,.31,.05,1.14,.22,1.28,.34,.76,.28,1.15-.2,.51-.06,.82,.03,1.49-.03,1.66-.51,.84-.25,.93,.08,.56-.11,.65,.11,.68-.08,.79-.68,.11-.59,.34,.34,.23-.14,.37-.45-.17-.48,.14,.59,.23-.03,.31-.93,.25-.87,.53-.31,.23-.51,.03-.48-.51-.48-.23-.37,.2-.39-.14,.25-.28-.03-.34-.39,0-.37-.23,.45-.23,.03-.23-.51,.2-1.01-.68-.73-1.66-.9-1.66-.48-.37-.23-.39,.14-.06-.03-.39-.2-.82-.14-.93,.11,0,0-.39-.17-.51-.08-.59,0-.39-.08-.65-.17-.51-.08-.56,.05,0,.06-.23c.03-.65,.06-.76-.03-.87s-.34-.76-.11-.99,.42-.14,.06-.59-.39-.45-.23-.73,.37-.82,.06-.99-.68-.51-.42-.59,.34-.59,.11-.65-.03-.25,.03-.34,.28,.2-.08-.51-1.04-1.38-1.01-1.77,.24-.57,.24-.57Z"/><g id="r"><path class="aj" d="M217.33,646.39c-2.58,.94-5.18,1.54-7.8,1.8-1.16,0-7.25-.91-8.61-1.88-1.78-1.26-4.1-3.39-4.1-3.87-.03-.69,1.64-.41,2.41-.55,3.15-.58,4.89-.72,7.19-.94,3.89-.36,3.7-.53,8.1,0,.58,.08,5.62,.85,6.22,1.08,1.5,.57,2.05,.67,2.03,.88,0,.05,.02,.08-.03,.15-1.22,1.69-3.94,2.65-5.41,3.39"/><path class="am" d="M210.58,640.63c-1.12,0-2.02,.14-4.16,.34-1.13,.11-2.13,.19-3.23,.33-.83,.24-1.65,.53-2.47,.9l-.71,.3c3.54,1.1,7.12,1.67,10.71,1.69h1.04c1.3-.09,2.71,.14,3.86-1.28-1.87-.58-3.75-.89-5.64-.93-.7,0-1.4,.05-2.08,.18h-.17l2.1,.47-1.87-.47h1.12c2.01-.02,4.01,.26,5.99,.85-1.02,.85-2.22,.65-3.32,.73h-.56c-1.04,0-2.07-.05-3.11-.14-2.19-.19-4.38-.6-6.56-1.21,1.47-.52,2.96-.88,4.46-1.07,1.38-.16,2.77-.24,4.16-.24,3,0,5.99,.36,8.96,1.07,.13,.05,1.06,.37,.72,.69-3.74,1.14-8.64,3.07-13.22,3.07-3.24,0-6.31-.97-8.67-3.85,2.48,3.13,5.68,4.17,9.04,4.17,4.47,0,9.22-1.83,12.94-2.95,.04-.02,.08-.06,.12-.11,.04-.05,.07-.12,.09-.19,.02-.07,.04-.16,.04-.24,0-.09,0-.17-.02-.25-.07-.2-.16-.37-.27-.49-.11-.12-.23-.19-.36-.21-1.72-.32-4.56-.75-4.98-.85-1.98-.19-3.04-.28-3.93-.28Z"/></g></g><g id="s"><g><path class="am" d="M222.66,646.98c.05-2.59-.29-19.37-.24-22.34,0-.54,.13-.75,.04-4.51,.1-2.27,.11-4.71,.11-4.71v-6.75c-.14-6.75-.11-2.43,.07-11.35,.07-3.47,0-2.96-.06-10.08-1.75,2.1-2.65,2.44-4.78,3.33-4.38,1.84-7.91,2.29-12.33,.94-2.71-.85-6.71-1.28-8.72-4.73-.21,4.37-.24,7.1-.34,10.93-.06,2.28-.11,3.77-.15,5.58-.1,5.64,.06,2.74-.19,10.07-.04,1.28,.05,4.16-.05,6.14-.03,2.23,0,2.31-.05,3.44,.04,3.09,.03,2.6,.02,4.03-.03,3.95,.25,27.64,.31,30.49"/><g id="t"><path class="am" d="M217.59,591.17c-2.68,.94-4.83,1.22-7.55,1.48-1.21,0-7.79-.79-9.19-1.76-1.85-1.26-4.02-3.5-4.02-3.99-.03-.69,1.71-.41,2.5-.55,3.28-.58,5.08-.72,7.47-.94,4.04-.36,3.85-.53,8.41,0,.6,.08,5.84,.85,6.46,1.08,1.92,.7,.59,2.24,.21,2.62-1.27,1.69-2.23,1.06-3.75,1.8"/><path class="am" d="M211.14,585.09c-1.16,0-2.1,.14-4.33,.34-1.18,.11-2.22,.19-3.36,.33-.86,.24-1.72,.53-2.57,.9l-.73,.3c3.68,1.1,7.4,1.67,11.12,1.69h1.08c1.35-.09,2.82,.14,4.01-1.28-1.94-.58-3.9-.89-5.86-.93-.73,0-1.45,.05-2.16,.18h-.18l2.18,.47-1.95-.47h1.16c2.08-.02,4.17,.26,6.23,.85-1.06,.85-2.31,.65-3.45,.73h-.59c-1.08,0-2.16-.05-3.23-.14-2.28-.19-4.56-.6-6.81-1.21,1.53-.52,3.08-.88,4.63-1.07,1.44-.16,2.88-.24,4.33-.24,3.11,0,6.22,.36,9.31,1.07,.13,.05,1.1,.37,.74,.69-3.89,1.14-8.98,3.07-13.73,3.07-3.36,0-6.55-.97-9.01-3.85,2.58,3.13,5.9,4.17,9.39,4.17,4.64,0,9.58-1.83,13.44-2.95,.05-.02,.09-.06,.12-.11,.04-.05,.07-.12,.09-.19,.02-.07,.04-.16,.04-.24,0-.09,0-.17-.02-.25-.07-.2-.17-.37-.28-.49-.11-.12-.24-.19-.37-.21-1.79-.32-4.74-.75-5.18-.85-2.05-.19-3.16-.28-4.08-.28Z"/></g></g><polygon class="am" points="199.92 631.43 182.29 615.78 182.68 612.6 201.11 624.3 199.92 631.43"/><path class="al" d="M195.8,624.2c.27-.25,.64,.1,.64,.6s-.02,1.2,.31,.93,.89-.29,.89-.17-.06,.1,.17,.12,.35,.08,.56,.27,.02,.37,.21,.19,.39-.81,.6-.66,.04,.12,.21,0,.02-.48,.19-.39,.17-.02,.27-.08-.33,.43,.14,.72,1.28,.48,1.65,1.05,.43,1.14,.81,1.3,.52-.06,.45,.31-.19,.85,.08,.89,.45,.12,.27,.29-.52-.04-.19,.17,.41-.19,.33,.21,0,.81,.14,.87,.1,0,.08,.31,.02-.45-.02,.31,.05,1.14,.22,1.28,.34,.76,.28,1.15-.2,.51-.06,.82,.03,1.49-.03,1.66-.51,.84-.25,.93,.08,.56-.11,.65,.11,.68-.08,.79-.68,.11-.59,.34,.34,.23-.14,.37-.45-.17-.48,.14,.59,.23-.03,.31-.93,.25-.87,.53-.31,.23-.51,.03-.48-.51-.48-.23-.37,.2-.39-.14,.25-.28-.03-.34-.39,0-.37-.23,.45-.23,.03-.23-.51,.2-1.01-.68-.73-1.66-.9-1.66-.48-.37-.23-.39,.14-.06-.03-.39-.2-.82-.14-.93,.11,0,0-.39-.17-.51-.08-.59,0-.39-.08-.65-.17-.51-.08-.56,.05,0,.06-.23c.03-.65,.06-.76-.03-.87s-.34-.76-.11-.99,.42-.14,.06-.59-.39-.45-.23-.73,.37-.82,.06-.99-.68-.51-.42-.59,.34-.59,.11-.65-.03-.25,.03-.34,.28,.2-.08-.51-1.04-1.38-1.01-1.77,.24-.57,.24-.57Z"/><path class="ak" d="M196.45,630.24s-1.14,2.99-1.58,3.18-1.52,.76-1.18,.92-1.6,1.87-1.34,2.76,0,2.02,.42,2.68,.6,.97,.5,2.15-.63,2.27-.21,2.71,1.02,.45,1-.42-.07-4.7,.37-4.81,1.02-.39,1.02,.13-.34,1.68,.5,1.5,.92-.84,.79-1.81-.24-.89,.26-1.31,.45-1.13,.63-4.2-.13-5.02-.13-5.02l-.32-.84-.74,2.39Z"/><g id="u"><path class="aj" d="M217.91,590.85c-2.58,.94-5.18,1.54-7.8,1.8-1.16,0-7.25-.91-8.61-1.88-1.78-1.26-4.1-3.39-4.1-3.87-.03-.69,1.64-.41,2.41-.55,3.15-.58,4.89-.72,7.19-.94,3.89-.36,3.7-.53,8.1,0,.58,.08,5.62,.85,6.22,1.08,1.5,.57,2.05,.67,2.03,.88,0,.05,.02,.08-.03,.15-1.22,1.69-3.94,2.65-5.41,3.39"/><path class="am" d="M211.16,585.09c-1.12,0-2.02,.14-4.16,.34-1.13,.11-2.13,.19-3.23,.33-.83,.24-1.65,.53-2.47,.9l-.71,.3c3.54,1.1,7.12,1.67,10.71,1.69h1.04c1.3-.09,2.71,.14,3.86-1.28-1.87-.58-3.75-.89-5.64-.93-.7,0-1.4,.05-2.08,.18h-.17l2.1,.47-1.87-.47h1.12c2.01-.02,4.01,.26,5.99,.85-1.02,.85-2.22,.65-3.32,.73h-.56c-1.04,0-2.07-.05-3.11-.14-2.19-.19-4.38-.6-6.56-1.21,1.47-.52,2.96-.88,4.46-1.07,1.38-.16,2.77-.24,4.16-.24,3,0,5.99,.36,8.96,1.07,.13,.05,1.06,.37,.72,.69-3.74,1.14-8.64,3.07-13.22,3.07-3.24,0-6.31-.97-8.67-3.85,2.48,3.13,5.68,4.17,9.04,4.17,4.47,0,9.22-1.83,12.94-2.95,.04-.02,.08-.06,.12-.11,.04-.05,.07-.12,.09-.19,.02-.07,.04-.16,.04-.24,0-.09,0-.17-.02-.25-.07-.2-.16-.37-.27-.49-.11-.12-.23-.19-.36-.21-1.72-.32-4.56-.75-4.98-.85-1.98-.19-3.04-.28-3.93-.28Z"/></g></g><g id="v"><g><path class="am" d="M222.53,596.78c.49-3.87-.17-26.49-.11-29.47,0-.54,.13-.75,.04-4.51,.1-2.27,.11-4.71,.11-4.71v-6.75c-.14-6.75-.11-2.43,.07-11.35,.07-3.47,0-2.96-.06-10.08-1.75,2.1-2.65,2.44-4.78,3.33-4.38,1.84-7.91,2.29-12.33,.94-2.71-.85-6.71-1.28-8.72-4.73-.21,4.37-.24,7.1-.34,10.93-.06,2.28-.11,3.77-.15,5.58-.1,5.64,.06,2.74-.19,10.07-.04,1.28,.05,4.16-.05,6.14-.03,2.23,0,2.31-.05,3.44,.04,3.09,.03,2.6,.02,4.03-.03,3.95,.28,28.21,.34,31.06"/><g id="w"><path class="am" d="M217.59,533.85c-2.68,.94-4.83,1.22-7.55,1.48-1.21,0-7.79-.79-9.19-1.76-1.85-1.26-4.02-3.5-4.02-3.99-.03-.69,1.71-.41,2.5-.55,3.28-.58,5.08-.72,7.47-.94,4.04-.36,3.85-.53,8.41,0,.6,.08,5.84,.85,6.46,1.08,1.92,.7,.59,2.24,.21,2.62-1.27,1.69-2.23,1.06-3.75,1.8"/><path class="am" d="M211.14,527.77c-1.16,0-2.1,.14-4.33,.34-1.18,.11-2.22,.19-3.36,.33-.86,.24-1.72,.53-2.57,.9l-.73,.3c3.68,1.1,7.4,1.67,11.12,1.69h1.08c1.35-.09,2.82,.14,4.01-1.28-1.94-.58-3.9-.89-5.86-.93-.73,0-1.45,.05-2.16,.18h-.18l2.18,.47-1.95-.47h1.16c2.08-.02,4.17,.26,6.23,.85-1.06,.85-2.31,.65-3.45,.73h-.59c-1.08,0-2.16-.05-3.23-.14-2.28-.19-4.56-.6-6.81-1.21,1.53-.52,3.08-.88,4.63-1.07,1.44-.16,2.88-.24,4.33-.24,3.11,0,6.22,.36,9.31,1.07,.13,.05,1.1,.37,.74,.69-3.89,1.14-8.98,3.07-13.73,3.07-3.36,0-6.55-.97-9.01-3.85,2.58,3.13,5.9,4.17,9.39,4.17,4.64,0,9.58-1.83,13.44-2.95,.05-.02,.09-.06,.12-.11,.04-.05,.07-.12,.09-.19,.02-.07,.04-.16,.04-.24,0-.09,0-.17-.02-.25-.07-.2-.17-.37-.28-.49-.11-.12-.24-.19-.37-.21-1.79-.32-4.74-.75-5.18-.85-2.05-.19-3.16-.28-4.08-.28Z"/></g></g><path class="am" d="M220.84,563s4.05,1.99,9.29-4.23c2.42-2.88,6.23-4.59,8.14-6.14,2.21-1.8,2.8-2.07,3.8-4.12,2.16-4.43,3.13-9.39,3.27-4.22,.12,4.55-5.39,10.17-5.39,10.17,0,0,1.82,.55,5.18-.62,3.13-1.09,3.85-1.56,4.63-1.56s-2.65,2.38-6.7,3.31c-4.05,.93-9.75,5.63-11.47,8.21-3.66,5.53-11.94,12.38-11.94,12.38l1.18-13.19Z"/><g><path class="ai" d="M240.01,559.91s-.25-1.74,1.86-2.82,2.14-.69,2.14-.69c0,0-.19,2.86-1.81,3.29s-2.19,.21-2.19,.21Z"/><path class="ai" d="M248.15,557.27s-1.55-.18-2-2.24-.11-1.99-.11-1.99c0,0,2.41,.81,2.42,2.3s-.31,1.93-.31,1.93Z"/><path class="ai" d="M243.28,555.72s.02-1.91,2.48-2.71,2.41-.38,2.41-.38c0,0-.69,3.04-2.5,3.23s-2.39-.14-2.39-.14Z"/><path class="ai" d="M239.88,553.97s.59-1.47,2.73-1.36,1.98,.43,1.98,.43c0,0-1.44,2.15-2.91,1.76s-1.81-.82-1.81-.82Z"/><path class="ai" d="M243.92,551.09s-1.16-1.49,.24-3.62,1.62-1.78,1.62-1.78c0,0,1.34,2.77,.06,4.03s-1.93,1.36-1.93,1.36Z"/><path class="ai" d="M245.08,546.15s-1.55-1.02-.91-3.43,.95-2.17,.95-2.17c0,0,2.11,2.15,1.33,3.73s-1.36,1.87-1.36,1.87Z"/><path class="ai" d="M244.26,551.32s-1.97,.06-2.9-2.44-.5-2.47-.5-2.47c0,0,3.16,.58,3.44,2.44s-.04,2.47-.04,2.47Z"/><path class="ai" d="M237.4,555.47s-1.17-1.37,.07-3.46,1.47-1.77,1.47-1.77c0,0,1.4,2.59,.24,3.85s-1.78,1.39-1.78,1.39Z"/></g><g id="x"><path class="aj" d="M217.04,533.51c-2.58,.94-5.18,1.54-7.8,1.8-1.16,0-7.25-.91-8.61-1.88-1.78-1.26-4.1-3.39-4.1-3.87-.03-.69,1.64-.41,2.41-.55,3.15-.58,4.89-.72,7.19-.94,3.89-.36,3.7-.53,8.1,0,.58,.08,5.62,.85,6.22,1.08,1.5,.57,2.05,.67,2.03,.88,0,.05,.02,.08-.03,.15-1.22,1.69-3.94,2.65-5.41,3.39"/><path class="am" d="M210.29,527.75c-1.12,0-2.02,.14-4.16,.34-1.13,.11-2.13,.19-3.23,.33-.83,.24-1.65,.53-2.47,.9l-.71,.3c3.54,1.1,7.12,1.67,10.71,1.69h1.04c1.3-.09,2.71,.14,3.86-1.28-1.87-.58-3.75-.89-5.64-.93-.7,0-1.4,.05-2.08,.18h-.17l2.1,.47-1.87-.47h1.12c2.01-.02,4.01,.26,5.99,.85-1.02,.85-2.22,.65-3.32,.73h-.56c-1.04,0-2.07-.05-3.11-.14-2.19-.19-4.38-.6-6.56-1.21,1.47-.52,2.96-.88,4.46-1.07,1.38-.16,2.77-.24,4.16-.24,3,0,5.99,.36,8.96,1.07,.13,.05,1.06,.37,.72,.69-3.74,1.14-8.64,3.07-13.22,3.07-3.24,0-6.31-.97-8.67-3.85,2.48,3.13,5.68,4.17,9.04,4.17,4.47,0,9.22-1.83,12.94-2.95,.04-.02,.08-.06,.12-.11,.04-.05,.07-.12,.09-.19,.02-.07,.04-.16,.04-.24,0-.09,0-.17-.02-.25-.07-.2-.16-.37-.27-.49-.11-.12-.23-.19-.36-.21-1.72-.32-4.56-.75-4.98-.85-1.98-.19-3.04-.28-3.93-.28Z"/></g></g><g id="y"><g><path class="am" d="M222.53,540.48c.49-3.87-.17-26.49-.11-29.47,0-.54,.13-.75,.04-4.51,.1-2.27,.11-4.71,.11-4.71v-6.75c-.14-6.75-.11-2.43,.07-11.35,.07-3.47,0-2.96-.06-10.08-1.75,2.1-2.65,2.44-4.78,3.33-4.38,1.84-7.91,2.29-12.33,.94-2.71-.85-6.71-1.28-8.72-4.73-.21,4.37-.24,7.1-.34,10.93-.06,2.28-.11,3.77-.15,5.58-.1,5.64,.06,2.74-.19,10.07-.04,1.28,.05,4.16-.05,6.14-.03,2.23,0,2.31-.05,3.44,.04,3.09,.03,2.6,.02,4.03-.03,3.95,.28,28.21,.34,31.06"/><g id="a`"><path class="am" d="M217.59,477.55c-2.68,.94-4.83,1.22-7.55,1.48-1.21,0-7.79-.79-9.19-1.76-1.85-1.26-4.02-3.5-4.02-3.99-.03-.69,1.71-.41,2.5-.55,3.28-.58,5.08-.72,7.47-.94,4.04-.36,3.85-.53,8.41,0,.6,.08,5.84,.85,6.46,1.08,1.92,.7,.59,2.24,.21,2.62-1.27,1.69-2.23,1.06-3.75,1.8"/><path class="am" d="M211.14,471.47c-1.16,0-2.1,.14-4.33,.34-1.18,.11-2.22,.19-3.36,.33-.86,.24-1.72,.53-2.57,.9l-.73,.3c3.68,1.1,7.4,1.67,11.12,1.69h1.08c1.35-.09,2.82,.14,4.01-1.28-1.94-.58-3.9-.89-5.86-.93-.73,0-1.45,.05-2.16,.18h-.18l2.18,.47-1.95-.47h1.16c2.08-.02,4.17,.26,6.23,.85-1.06,.85-2.31,.65-3.45,.73h-.59c-1.08,0-2.16-.05-3.23-.14-2.28-.19-4.56-.6-6.81-1.21,1.53-.52,3.08-.88,4.63-1.07,1.44-.16,2.88-.24,4.33-.24,3.11,0,6.22,.36,9.31,1.07,.13,.05,1.1,.37,.74,.69-3.89,1.14-8.98,3.07-13.73,3.07-3.36,0-6.55-.97-9.01-3.85,2.58,3.13,5.9,4.17,9.39,4.17,4.64,0,9.58-1.83,13.44-2.95,.05-.02,.09-.06,.12-.11,.04-.05,.07-.12,.09-.19,.02-.07,.04-.16,.04-.24,0-.09,0-.17-.02-.25-.07-.2-.17-.37-.28-.49-.11-.12-.24-.19-.37-.21-1.79-.32-4.74-.75-5.18-.85-2.05-.19-3.16-.28-4.08-.28Z"/></g></g><path class="am" d="M191.83,509.86c-.06-.08-2.8-3.55-2.84-3.63-1.83-3.31-2.04-4.22-6.26-9.12-4.63-5.38-2-3.25-6.91-8.02-.02-.02-.72-.87-.74-.9l-1.27-1.52c-.48-.61,.83-.34,1.4,.18,.16,.15,.6,.68,.77,.85,.99,.99,2.55,2.12,3.79,3.44,.48,.51,1.31-.02,1.04-.67-1.07-2.54-2.47-6.2-3.46-10.09-.02-.07-.2-.84-.22-.91-.19-.77,.67,0,.95,.73,1.71,4.44,4.39,11.35,6.31,12.98,8.06,6.84,8.88,11.25,13.23,9.04,2.7-1.37-.23,9.47-.39,10.23-.01,.06,2.33,2.56,2.3,2.61-.28,.51-3.42,.45-7.69-5.21Z"/><g><path class="ai" d="M178.98,496.28s-1-1.63,.65-3.61,1.83-1.61,1.83-1.61c0,0,1.03,2.93-.39,4.06s-2.09,1.15-2.09,1.15Z"/><path class="ai" d="M176.25,493.18s-1.52-1.06-.83-3.46,1-2.14,1-2.14c0,0,2.06,2.2,1.24,3.76s-1.41,1.84-1.41,1.84Z"/><path class="ai" d="M180.06,491.49s-1.8-.35-2.13-2.81,.05-2.34,.05-2.34c0,0,2.75,1.17,2.62,2.92s-.54,2.23-.54,2.23Z"/><path class="ai" d="M176.14,485.1s.36-1.46,2.38-1.64,1.91,.13,1.91,.13c0,0-1.07,2.2-2.49,2.03s-1.8-.53-1.8-.53Z"/><path class="ai" d="M176.41,483.79s.28-1.41,2.2-1.65,1.83,.05,1.83,.05c0,0-.93,2.14-2.29,2.04s-1.74-.44-1.74-.44Z"/></g><g id="aa"><path class="aj" d="M217.33,476.76c-2.58,.94-5.18,1.54-7.8,1.8-1.16,0-7.25-.91-8.61-1.88-1.78-1.26-4.1-3.39-4.1-3.87-.03-.69,1.64-.41,2.41-.55,3.15-.58,4.89-.72,7.19-.94,3.89-.36,3.7-.53,8.1,0,.58,.08,5.62,.85,6.22,1.08,1.5,.57,2.05,.67,2.03,.88,0,.05,.02,.08-.03,.15-1.22,1.69-3.94,2.65-5.41,3.39"/><path class="am" d="M210.58,471c-1.12,0-2.02,.14-4.16,.34-1.13,.11-2.13,.19-3.23,.33-.83,.24-1.65,.53-2.47,.9l-.71,.3c3.54,1.1,7.12,1.67,10.71,1.69h1.04c1.3-.09,2.71,.14,3.86-1.28-1.87-.58-3.75-.89-5.64-.93-.7,0-1.4,.05-2.08,.18h-.17l2.1,.47-1.87-.47h1.12c2.01-.02,4.01,.26,5.99,.85-1.02,.85-2.22,.65-3.32,.73h-.56c-1.04,0-2.07-.05-3.11-.14-2.19-.19-4.38-.6-6.56-1.21,1.47-.52,2.96-.88,4.46-1.07,1.38-.16,2.77-.24,4.16-.24,3,0,5.99,.36,8.96,1.07,.13,.05,1.06,.37,.72,.69-3.74,1.14-8.64,3.07-13.22,3.07-3.24,0-6.31-.97-8.67-3.85,2.48,3.13,5.68,4.17,9.04,4.17,4.47,0,9.22-1.83,12.94-2.95,.04-.02,.08-.06,.12-.11,.04-.05,.07-.12,.09-.19,.02-.07,.04-.16,.04-.24,0-.09,0-.17-.02-.25-.07-.2-.16-.37-.27-.49-.11-.12-.23-.19-.36-.21-1.72-.32-4.56-.75-4.98-.85-1.98-.19-3.04-.28-3.93-.28Z"/></g></g></g><g id="ab"/><g id="ac"><g id="ad"/><g id="ae"/></g><g id="af"><g id="ag"/><g id="ah"/></g></svg>