<?xml version="1.0" encoding="UTF-8"?><svg xmlns="http://www.w3.org/2000/svg" viewBox="0 0 428 926"><defs><style>.w{fill:#84a749;}.x{fill:#c19f87;}.y{fill:#6d5341;}.a`{opacity:.78;}</style></defs><g id="a"><g id="b" class="a`"/></g><g id="c"><g id="d"><g><path id="e" class="y" d="M243.02,870.01s5.47,14.08,12.72,18.72c8.38,5.35,1.35,5.74-2.66,5.18-4.01-.56-11.16-4.2-13.84-7.56-2.68-3.36-50.54,11.06-56.71,11.66-6.17,.6-13.2,1.64-14.19-.36s6.71-3.98,9.44-10.92c2.72-6.93,4.95-19.66,6.49-22.15,3.11-5.05,58.75,5.43,58.75,5.43Z"/><path class="y" d="M253.69,894.06c-2.66-3.25-5.21-5.83-7.73-8.15-.62-.57-1.11-1.33-1.49-2.19-.18-2.48-.39-4.88-.39-4.88l-.02-.29c-.5-10.37-.61-31.03-1.71-47.2-.49-7.26-.57-8.5-.71-23.45-3.68,4.41-8.98,4.47-13.46,6.35-9.2,3.86-16.62,4.82-25.9,1.97-5.7-1.78-12.97-2.31-17.19-9.55,.64,11.13-.04,15.73,.13,23.78,.1,3.82-.19,10.18-.41,13.99-.59,10.39-.13,14.35-2.19,24.07-.49,2.62-.85,5.32-1.09,8.06-.3,2.32-.5,4.68-.58,7.06-.25,2.2-.52,4.92-.72,7.92-.49,7.54-4.18,9.37-8.79,10.89-4.61,1.52-6.73,3.66-6.73,3.66,0,0-9.21,7.78-2.7,5.54,3.14-1.08,12.51-5.13,16.36-5.21,3.85-.08,7.05,.13,11.17-2.79,4.12-2.92,3.29-4.81,9.88-3.8,3.98,.61,5.35,4.25,2.59,13.01-2.5,7.93-.63,13.58,2.85,12.79,1.25-.29,5.65-14.7,12.02-20.3,1.87-1.65,2.47-2.3,5.3-3.86,3.82-2.1,6.69-.41,12.94,4.16,4.86,3.55,6.13,5.5,8.19,7,2.06,1.5,4.19-1.29,1.67-4.88-2.52-3.59-3.43-3.07-5.9-9.85-2.37-6.51,3.85-1.54,9.02,1.84,5.48,3.59,15.08,5.44,17.56,4.94,2.16-.43-9.3-7.38-11.95-10.63Z"/><g id="f"><path class="x" d="M229.82,815.1c-5.62,1.97-11.31,3.24-17.03,3.79-2.54,0-15.84-1.9-18.79-3.95-3.88-2.65-8.96-7.11-8.96-8.13-.07-1.44,3.59-.85,5.26-1.16,6.89-1.23,10.67-1.51,15.69-1.97,8.49-.76,8.09-1.12,17.68,0,1.27,.16,12.28,1.78,13.58,2.26,3.28,1.2,4.47,1.41,4.43,1.86,0,.1,.04,.17-.07,.31-2.67,3.56-8.6,5.57-11.8,7.11"/><path class="y" d="M215.09,803.01c-2.43,0-4.41,.28-9.09,.71-2.47,.23-4.65,.41-7.06,.69-1.8,.5-3.61,1.12-5.39,1.89l-1.54,.64c7.73,2.31,15.54,3.5,23.37,3.56h2.26c2.84-.2,5.92,.3,8.43-2.69-4.07-1.22-8.19-1.88-12.32-1.96-1.53,0-3.05,.11-4.54,.37h-.37v-.02l4.59,1-4.09-1h2.44c4.38-.05,8.75,.55,13.08,1.78-2.23,1.78-4.85,1.37-7.25,1.53h-1.23c-2.26,0-4.53-.11-6.79-.3-4.79-.41-9.57-1.26-14.31-2.54,3.21-1.1,6.46-1.85,9.73-2.24,3.02-.34,6.05-.5,9.09-.5,6.54,0,13.07,.75,19.56,2.24,.28,.11,2.31,.78,1.56,1.44-8.17,2.4-18.87,6.46-28.85,6.46-7.07,0-13.77-2.03-18.93-8.09,5.42,6.58,12.4,8.75,19.73,8.75,9.76,0,20.13-3.84,28.24-6.21,.1-.04,.18-.12,.26-.23,.08-.11,.14-.25,.19-.4,.05-.16,.08-.33,.09-.51,0-.18,0-.36-.03-.53-.15-.42-.35-.77-.59-1.03-.24-.26-.5-.41-.78-.45-3.75-.68-9.95-1.58-10.88-1.78-4.32-.39-6.63-.59-8.57-.59Z"/></g></g></g><g id="g"><g><path class="y" d="M241.69,818.1c.1-5.44-.1-11.21,.01-17.47,.02-1.12,.27-1.57,.07-9.47,.2-4.78,.24-9.89,.24-9.89l.17-14.46c-.29-14.18-.31-7.43-.01-23.55,.13-7.28,0-6.23-.13-21.17-3.68,4.41-5.56,5.12-10.04,7-9.2,3.86-16.62,4.82-25.9,1.97-5.7-1.78-14.09-2.7-18.32-9.94-.44,9.18-.96,15.77-1.16,23.81-.12,4.78-.52,9.51-.59,13.31-.21,11.85-.15,8.28-.68,23.68-.09,2.69,.24,6.75,0,9.49-.3,2.32-.16,4.21-.24,6.58,.09,6.48-.03,4.2-.06,7.2-.07,8.29,.24,11.4,.37,17.39"/><g id="h"><path class="y" d="M231.39,730.31c-5.62,1.97-10.14,2.56-15.86,3.11-2.54,0-16.36-1.65-19.31-3.7-3.88-2.65-8.44-7.36-8.44-8.38-.07-1.44,3.59-.85,5.26-1.16,6.89-1.23,10.67-1.51,15.69-1.97,8.49-.76,8.09-1.12,17.68,0,1.27,.16,12.28,1.78,13.58,2.26,4.03,1.48,1.24,4.7,.44,5.5-2.67,3.56-4.69,2.24-7.89,3.78"/><path class="y" d="M217.84,717.54c-2.43,0-4.41,.28-9.09,.71-2.47,.23-4.65,.41-7.06,.69-1.8,.5-3.61,1.12-5.39,1.89l-1.54,.64c7.73,2.31,15.54,3.5,23.37,3.56h2.26c2.84-.2,5.92,.3,8.43-2.69-4.07-1.22-8.19-1.88-12.32-1.96-1.53,0-3.05,.11-4.54,.37h-.37v-.02l4.59,1-4.09-1h2.44c4.38-.05,8.75,.55,13.08,1.78-2.23,1.78-4.85,1.37-7.25,1.53h-1.23c-2.26,0-4.53-.11-6.79-.3-4.79-.41-9.57-1.26-14.31-2.54,3.21-1.1,6.46-1.85,9.73-2.24,3.02-.34,6.05-.5,9.09-.5,6.54,0,13.07,.75,19.56,2.24,.28,.11,2.31,.78,1.56,1.44-8.17,2.4-18.87,6.46-28.85,6.46-7.07,0-13.77-2.03-18.93-8.09,5.42,6.58,12.4,8.75,19.73,8.75,9.76,0,20.13-3.84,28.24-6.21,.1-.04,.18-.12,.26-.23,.08-.11,.14-.25,.19-.4,.05-.16,.08-.33,.09-.51,0-.18,0-.36-.03-.53-.15-.42-.35-.77-.59-1.03-.24-.26-.5-.41-.78-.45-3.75-.68-9.95-1.58-10.88-1.78-4.32-.39-6.63-.59-8.57-.59Z"/></g></g><g id="i"><path class="x" d="M230.91,729.13c-5.41,1.97-10.89,3.24-16.39,3.79-2.45,0-15.24-1.9-18.09-3.95-3.73-2.65-8.62-7.11-8.62-8.13-.07-1.44,3.45-.85,5.06-1.16,6.63-1.23,10.27-1.51,15.1-1.97,8.18-.76,7.78-1.12,17.01,0,1.22,.16,11.82,1.78,13.07,2.26,3.15,1.2,4.3,1.41,4.26,1.86,0,.1,.04,.17-.07,.31-2.57,3.56-8.28,5.57-11.36,7.11"/><path class="y" d="M216.73,717.03c-2.34,0-4.25,.28-8.74,.71-2.38,.23-4.48,.41-6.79,.69-1.74,.5-3.47,1.12-5.19,1.89l-1.48,.64c7.44,2.31,14.96,3.5,22.49,3.56h2.17c2.73-.2,5.69,.3,8.11-2.69-3.92-1.22-7.88-1.88-11.85-1.96-1.47,0-2.94,.11-4.37,.37h-.35v-.02l4.41,1-3.94-1h2.35c4.21-.05,8.42,.55,12.59,1.78-2.15,1.78-4.67,1.37-6.98,1.53h-1.19c-2.17,0-4.36-.11-6.53-.3-4.61-.41-9.21-1.26-13.78-2.54,3.09-1.1,6.22-1.85,9.36-2.24,2.9-.34,5.82-.5,8.74-.5,6.29,0,12.58,.75,18.82,2.24,.27,.11,2.22,.78,1.5,1.44-7.86,2.4-18.16,6.46-27.76,6.46-6.8,0-13.25-2.03-18.22-8.09,5.22,6.58,11.94,8.75,18.99,8.75,9.39,0,19.37-3.84,27.18-6.21,.09-.04,.18-.12,.25-.23,.07-.11,.14-.25,.18-.4,.05-.16,.07-.33,.08-.51,0-.18,0-.36-.03-.53-.15-.42-.34-.77-.57-1.03-.23-.26-.48-.41-.75-.45-3.61-.68-9.58-1.58-10.47-1.78-4.15-.39-6.38-.59-8.25-.59Z"/></g></g><g id="j"><g><path class="y" d="M242.26,741.14c.1-5.44-.2-84.22-.08-90.48,.02-1.12,.27-1.57,.07-9.47,.2-4.78,.24-9.89,.24-9.89v-14.17c-.29-14.18-.23-5.11,.15-23.84,.15-7.28,0-6.23-.13-21.17-3.68,4.41-5.56,5.12-10.04,7-9.2,3.86-16.62,4.82-25.9,1.97-5.7-1.78-14.09-2.7-18.32-9.94-.44,9.18-.51,14.91-.72,22.95-.12,4.78-.24,7.92-.31,11.72-.21,11.85,.13,5.75-.4,21.15-.09,2.69,.11,8.75-.11,12.9-.06,4.69-.01,4.85-.1,7.23,.09,6.48,.06,5.46,.03,8.47-.07,8.29-.1,82.7,.02,88.68"/><g id="k"><path class="y" d="M232.03,580.36c-5.62,1.97-10.14,2.56-15.86,3.11-2.54,0-16.36-1.65-19.31-3.7-3.88-2.65-8.44-7.36-8.44-8.38-.07-1.44,3.59-.85,5.26-1.16,6.89-1.23,10.67-1.51,15.69-1.97,8.49-.76,8.09-1.12,17.68,0,1.27,.16,12.28,1.78,13.58,2.26,1.01,.37,1.47,.44,1.73,.99,.68,1.45-.69,3.91-1.29,4.51-2.67,3.56-4.69,2.24-7.89,3.78"/><path class="y" d="M218.47,567.58c-2.43,0-4.41,.28-9.09,.71-2.47,.23-4.65,.41-7.06,.69-1.8,.5-3.61,1.12-5.39,1.89l-1.54,.64c7.73,2.31,15.54,3.5,23.37,3.56h2.26c2.84-.2,5.92,.3,8.43-2.69-4.07-1.22-8.19-1.88-12.32-1.96-1.53,0-3.05,.11-4.54,.37h-.37v-.02l4.59,1-4.09-1h2.44c4.38-.05,8.75,.55,13.08,1.78-2.23,1.78-4.85,1.37-7.25,1.53h-1.23c-2.26,0-4.53-.11-6.79-.3-4.79-.41-9.57-1.26-14.31-2.54,3.21-1.1,6.46-1.85,9.73-2.24,3.02-.34,6.05-.5,9.09-.5,6.54,0,13.07,.75,19.56,2.24,.28,.11,2.31,.78,1.56,1.44-8.17,2.4-18.87,6.46-28.85,6.46-7.07,0-13.77-2.03-18.93-8.09,5.42,6.58,12.4,8.75,19.73,8.75,9.76,0,20.13-3.84,28.24-6.21,.1-.04,.18-.12,.26-.23,.08-.11,.14-.25,.19-.4,.05-.16,.08-.33,.09-.51,0-.18,0-.36-.03-.53-.15-.42-.35-.77-.59-1.03-.24-.26-.5-.41-.78-.45-3.75-.68-9.95-1.58-10.88-1.78-4.32-.39-6.63-.59-8.57-.59Z"/></g></g><path class="y" d="M238.7,678.3s10.58,4.11,21.59-8.96c5.09-6.05,11.03-9.57,15.03-12.83,4.64-3.79,5.89-4.34,7.99-8.66,4.53-9.31,7.8-20.01,8.08-9.14,.24,9.55-12.54,21.64-12.54,21.64,0,0,3.83,1.15,10.88-1.3,6.58-2.29,8.09-3.27,9.72-3.27s-3.24,5.21-11.74,7.18c-8.5,1.96-18.05,8.39-20.01,14.6s-31.49,28.46-31.49,28.46l2.49-27.71Z"/><g><path class="w" d="M279.15,671.7s-.53-3.66,3.92-5.92,4.49-1.46,4.49-1.46c0,0-.41,6.01-3.8,6.92s-4.6,.45-4.6,.45Z"/><path class="w" d="M296.7,667.09s-3.26-.38-4.19-4.71-.23-4.19-.23-4.19c0,0,5.07,1.71,5.08,4.84,.01,3.13-.66,4.06-.66,4.06Z"/><path class="w" d="M285.84,663.01s.05-4.02,5.21-5.69,5.07-.81,5.07-.81c0,0-1.45,6.39-5.26,6.79-3.8,.41-5.02-.29-5.02-.29Z"/><path class="w" d="M278.7,659.34s1.24-3.1,5.74-2.85,4.17,.89,4.17,.89c0,0-3.04,4.51-6.1,3.69s-3.8-1.73-3.8-1.73Z"/><path class="w" d="M287.19,653.27s-2.44-3.13,.51-7.6,3.41-3.74,3.41-3.74c0,0,2.81,5.82,.13,8.47-2.68,2.66-4.05,2.87-4.05,2.87Z"/><path class="w" d="M289.62,642.91s-3.25-2.14-1.92-7.21,1.99-4.55,1.99-4.55c0,0,4.44,4.52,2.79,7.83-1.66,3.31-2.86,3.94-2.86,3.94Z"/><path class="w" d="M287.91,653.77s-4.15,.12-6.1-5.12-1.05-5.19-1.05-5.19c0,0,6.65,1.21,7.23,5.12,.59,3.9-.08,5.19-.08,5.19Z"/><path class="w" d="M273.5,662.49s-2.46-2.88,.15-7.28,3.1-3.72,3.1-3.72c0,0,2.94,5.43,.5,8.09s-3.74,2.91-3.74,2.91Z"/></g><g id="l"><path class="x" d="M231.48,578.7c-5.41,1.97-10.89,3.24-16.39,3.79-2.45,0-15.24-1.9-18.09-3.95-3.73-2.65-8.62-7.11-8.62-8.13-.07-1.44,3.45-.85,5.06-1.16,6.63-1.23,10.27-1.51,15.1-1.97,8.18-.76,7.78-1.12,17.01,0,1.22,.16,11.82,1.78,13.07,2.26,3.15,1.2,4.3,1.41,4.26,1.86,0,.1,.04,.17-.07,.31-2.57,3.56-8.28,5.57-11.36,7.11"/><path class="y" d="M217.31,566.6c-2.34,0-4.25,.28-8.74,.71-2.38,.23-4.48,.41-6.79,.69-1.74,.5-3.47,1.12-5.19,1.89l-1.48,.64c7.44,2.31,14.96,3.5,22.49,3.56h2.17c2.73-.2,5.69,.3,8.11-2.69-3.92-1.22-7.88-1.88-11.85-1.96-1.47,0-2.94,.11-4.37,.37h-.35v-.02l4.41,1-3.94-1h2.35c4.21-.05,8.42,.55,12.59,1.78-2.15,1.78-4.67,1.37-6.98,1.53h-1.19c-2.17,0-4.36-.11-6.53-.3-4.61-.41-9.21-1.26-13.78-2.54,3.09-1.1,6.22-1.85,9.36-2.24,2.9-.34,5.82-.5,8.74-.5,6.29,0,12.58,.75,18.82,2.24,.27,.11,2.22,.78,1.5,1.44-7.86,2.4-18.16,6.46-27.76,6.46-6.8,0-13.25-2.03-18.22-8.09,5.22,6.58,11.94,8.75,18.99,8.75,9.39,0,19.37-3.84,27.18-6.21,.09-.04,.18-.12,.25-.23,.07-.11,.14-.25,.18-.4,.05-.16,.07-.33,.08-.51,0-.18,0-.36-.03-.53-.15-.42-.34-.77-.57-1.03-.23-.26-.48-.41-.75-.45-3.61-.68-9.58-1.58-10.47-1.78-4.15-.39-6.38-.59-8.25-.59Z"/></g></g><g id="m"><g><path class="y" d="M242.7,584.73c.1-5.44,.13-44.27,.24-50.53,.02-1.12,.27-1.57,.07-9.47,.2-4.78,.24-9.89,.24-9.89v-14.17c-.29-14.18-.23-5.11,.15-23.84,.15-7.28,0-6.23-.13-21.17-3.68,4.41-5.56,5.12-10.04,7-9.2,3.86-16.62,4.82-25.9,1.97-5.7-1.78-14.09-2.7-18.32-9.94-.44,9.18-.51,14.91-.72,22.95-.12,4.78-.24,7.92-.31,11.72-.21,11.85,.13,5.75-.4,21.15-.09,2.69,.11,8.75-.11,12.9-.06,4.69-.01,4.85-.1,7.23,.09,6.48,.06,5.46,.03,8.47-.07,8.29,.56,39.01,.69,44.99"/><g id="n"><path class="y" d="M232.79,463.9c-5.62,1.97-10.14,2.56-15.86,3.11-2.54,0-16.36-1.65-19.31-3.7-3.88-2.65-8.44-7.36-8.44-8.38-.07-1.44,3.59-.85,5.26-1.16,6.89-1.23,10.67-1.51,15.69-1.97,8.49-.76,8.09-1.12,17.68,0,1.27,.16,12.28,1.78,13.58,2.26,4.03,1.48,1.24,4.7,.44,5.5-2.67,3.56-4.69,2.24-7.89,3.78"/><path class="y" d="M219.23,451.12c-2.43,0-4.41,.28-9.09,.71-2.47,.23-4.65,.41-7.06,.69-1.8,.5-3.61,1.12-5.39,1.89l-1.54,.64c7.73,2.31,15.54,3.5,23.37,3.56h2.26c2.84-.2,5.92,.3,8.43-2.69-4.07-1.22-8.19-1.88-12.32-1.96-1.53,0-3.05,.11-4.54,.37h-.37v-.02l4.59,1-4.09-1h2.44c4.38-.05,8.75,.55,13.08,1.78-2.23,1.78-4.85,1.37-7.25,1.53h-1.23c-2.26,0-4.53-.11-6.79-.3-4.79-.41-9.57-1.26-14.31-2.54,3.21-1.1,6.46-1.85,9.73-2.24,3.02-.34,6.05-.5,9.09-.5,6.54,0,13.07,.75,19.56,2.24,.28,.11,2.31,.78,1.56,1.44-8.17,2.4-18.87,6.46-28.85,6.46-7.07,0-13.77-2.03-18.93-8.09,5.42,6.58,12.4,8.75,19.73,8.75,9.76,0,20.13-3.84,28.24-6.21,.1-.04,.18-.12,.26-.23,.08-.11,.14-.25,.19-.4,.05-.16,.08-.33,.09-.51,0-.18,0-.36-.03-.53-.15-.42-.35-.77-.59-1.03-.24-.26-.5-.41-.78-.45-3.75-.68-9.95-1.58-10.88-1.78-4.32-.39-6.63-.59-8.57-.59Z"/></g></g><path class="y" d="M181.48,562.91c-.12-.16-5.87-7.46-5.97-7.64-3.85-6.95-4.29-8.87-13.15-19.16-9.74-11.31-4.2-6.84-14.52-16.85-.04-.04-1.51-1.84-1.55-1.88l-2.67-3.19c-1-1.28,1.74-.72,2.94,.38,.33,.3,1.25,1.44,1.61,1.79,2.08,2.08,5.36,4.45,7.95,7.23,1.01,1.08,2.76-.05,2.18-1.41-2.25-5.34-5.18-13.03-7.26-21.19-.04-.15-.43-1.77-.46-1.92-.41-1.61,1.41-.01,2,1.54,3.59,9.33,9.23,23.85,13.26,27.28,16.93,14.37,18.65,23.63,27.78,19,5.68-2.88-.49,19.89-.82,21.5-.03,.13,4.89,5.38,4.83,5.49-.59,1.08-7.18,.95-16.15-10.95Z"/><g><path class="w" d="M154.29,534.23s-2.1-3.42,1.36-7.58,3.85-3.38,3.85-3.38c0,0,2.17,6.16-.82,8.53-2.99,2.37-4.39,2.42-4.39,2.42Z"/><path class="w" d="M148.55,527.71s-3.2-2.22-1.75-7.26,2.1-4.5,2.1-4.5c0,0,4.34,4.62,2.6,7.9-1.73,3.27-2.96,3.87-2.96,3.87Z"/><path class="w" d="M156.98,524.25s-3.79-.74-4.48-5.89,.11-4.92,.11-4.92c0,0,5.78,2.47,5.51,6.13s-1.14,4.69-1.14,4.69Z"/><path class="w" d="M147.34,511.22s.75-3.07,4.99-3.44,4.02,.28,4.02,.28c0,0-2.24,4.63-5.22,4.27s-3.79-1.11-3.79-1.11Z"/><path class="w" d="M149.08,508.15s.6-2.96,4.63-3.47,3.85,.11,3.85,.11c0,0-1.96,4.51-4.82,4.28s-3.66-.92-3.66-.92Z"/></g><g id="o"><path class="x" d="M232.24,462.24c-5.41,1.97-10.89,3.24-16.39,3.79-2.45,0-15.24-1.9-18.09-3.95-3.73-2.65-8.62-7.11-8.62-8.13-.07-1.44,3.45-.85,5.06-1.16,6.63-1.23,10.27-1.51,15.1-1.97,8.18-.76,7.78-1.12,17.01,0,1.22,.16,11.82,1.78,13.07,2.26,3.15,1.2,4.3,1.41,4.26,1.86,0,.1,.04,.17-.07,.31-2.57,3.56-8.28,5.57-11.36,7.11"/><path class="y" d="M218.07,450.14c-2.34,0-4.25,.28-8.74,.71-2.38,.23-4.48,.41-6.79,.69-1.74,.5-3.47,1.12-5.19,1.89l-1.48,.64c7.44,2.31,14.96,3.5,22.49,3.56h2.17c2.73-.2,5.69,.3,8.11-2.69-3.92-1.22-7.88-1.88-11.85-1.96-1.47,0-2.94,.11-4.37,.37h-.35v-.02l4.41,1-3.94-1h2.35c4.21-.05,8.42,.55,12.59,1.78-2.15,1.78-4.67,1.37-6.98,1.53h-1.19c-2.17,0-4.36-.11-6.53-.3-4.61-.41-9.21-1.26-13.78-2.54,3.09-1.1,6.22-1.85,9.36-2.24,2.9-.34,5.82-.5,8.74-.5,6.29,0,12.58,.75,18.82,2.24,.27,.11,2.22,.78,1.5,1.44-7.86,2.4-18.16,6.46-27.76,6.46-6.8,0-13.25-2.03-18.22-8.09,5.22,6.58,11.94,8.75,18.99,8.75,9.39,0,19.37-3.84,27.18-6.21,.09-.04,.18-.12,.25-.23,.07-.11,.14-.25,.18-.4,.05-.16,.07-.33,.08-.51,0-.18,0-.36-.03-.53-.15-.42-.34-.77-.57-1.03-.23-.26-.48-.41-.75-.45-3.61-.68-9.58-1.58-10.47-1.78-4.15-.39-6.38-.59-8.25-.59Z"/></g></g></g><g id="p"/><g id="q"><g id="r"/><g id="s"/></g><g id="t"><g id="u"/><g id="v"/></g></svg>