<?xml version="1.0" encoding="UTF-8"?><svg xmlns="http://www.w3.org/2000/svg" viewBox="0 0 428 926"><defs><style>.ac{fill:#84a749;}.ad{fill:#c19f87;}.ae{fill:#e0a54f;}.af{fill:#715847;}.ag{fill:#6d5341;}.ah{opacity:.78;}</style></defs><g id="a"><g id="b" class="ah"/></g><g id="c"><g id="d"><g><path id="e" class="ag" d="M234.64,879.45s4.65,11.97,10.82,15.91c7.12,4.55,1.15,4.88-2.26,4.4s-9.49-3.57-11.76-6.43-42.96,9.4-48.2,9.91c-5.24,.51-11.22,1.39-12.06-.3s5.71-3.39,8.02-9.28c2.31-5.89,4.2-16.71,5.51-18.83,2.65-4.29,49.94,4.62,49.94,4.62Z"/><path class="ag" d="M243.71,899.89c-2.26-2.76-4.43-4.95-6.57-6.93-.53-.49-.94-1.13-1.27-1.86-.15-2.11-.33-4.15-.33-4.15l-.02-.24c-.43-8.81-.52-26.38-1.46-40.12-.42-6.17-.49-7.23-.6-19.93-3.12,3.75-7.64,3.8-11.44,5.4-7.82,3.28-14.13,4.1-22.02,1.68-4.85-1.51-11.02-1.97-14.61-8.12,.54,9.46-.03,13.37,.11,20.21,.08,3.25-.16,8.65-.35,11.89-.5,8.83-.11,12.19-1.86,20.46-.41,2.23-.72,4.52-.92,6.85-.26,1.97-.42,3.98-.5,6-.22,1.87-.44,4.18-.61,6.73-.41,6.41-3.56,7.96-7.47,9.26-3.92,1.29-5.72,3.11-5.72,3.11,0,0-7.83,6.61-2.3,4.71,2.67-.92,10.63-4.36,13.9-4.43,3.27-.07,5.99,.11,9.49-2.37,3.5-2.48,2.8-4.08,8.4-3.23,3.38,.52,4.55,3.61,2.2,11.06-2.13,6.74-.53,11.55,2.42,10.87,1.06-.24,4.8-12.49,10.21-17.25,1.59-1.4,2.1-1.95,4.5-3.28,3.25-1.79,5.68-.35,11,3.53,4.13,3.02,5.21,4.67,6.96,5.95,1.75,1.28,3.57-1.1,1.42-4.15-2.14-3.05-2.92-2.61-5.02-8.37s3.27-1.31,7.67,1.57c4.66,3.05,12.82,4.62,14.93,4.2,1.84-.37-7.9-6.27-10.16-9.04Z"/><g id="f"><path class="ad" d="M223.42,832.78c-4.78,1.68-9.62,2.75-14.47,3.22-2.16,0-13.46-1.62-15.97-3.36-3.3-2.25-7.62-6.05-7.62-6.91-.06-1.22,3.05-.73,4.47-.98,5.85-1.04,9.07-1.29,13.34-1.68,7.22-.65,6.87-.95,15.03,0,1.08,.14,10.44,1.51,11.54,1.92,2.79,1.02,3.8,1.2,3.76,1.58,0,.09,.03,.15-.06,.26-2.27,3.02-7.31,4.73-10.03,6.05"/><path class="ag" d="M210.9,822.5c-2.07,0-3.75,.24-7.72,.6-2.1,.2-3.96,.35-6,.59-1.53,.42-3.07,.95-4.58,1.6l-1.31,.54c6.57,1.97,13.21,2.98,19.86,3.02h1.92c2.42-.17,5.03,.26,7.16-2.28-3.46-1.04-6.96-1.6-10.47-1.66-1.3,0-2.6,.09-3.86,.32h-.31v-.02l3.9,.85-3.48-.85h2.08c3.72-.04,7.44,.46,11.12,1.51-1.9,1.51-4.12,1.16-6.17,1.3h-1.05c-1.92,0-3.85-.09-5.77-.26-4.07-.35-8.14-1.07-12.17-2.16,2.73-.94,5.49-1.57,8.27-1.9,2.56-.29,5.14-.42,7.72-.42,5.56,0,11.11,.64,16.63,1.9,.24,.09,1.96,.67,1.33,1.22-6.94,2.04-16.04,5.49-24.52,5.49-6.01,0-11.7-1.72-16.09-6.88,4.61,5.59,10.54,7.44,16.77,7.44,8.29,0,17.11-3.27,24-5.28,.08-.04,.16-.1,.22-.2,.07-.09,.12-.21,.16-.34,.04-.13,.07-.28,.07-.43,0-.15,0-.31-.03-.45-.13-.36-.3-.66-.5-.88-.2-.22-.43-.35-.66-.38-3.19-.57-8.46-1.35-9.25-1.51-3.67-.33-5.64-.5-7.29-.5Z"/></g></g></g><g id="g"><g><path class="ag" d="M233.51,835.33c.08-4.62-.08-9.53,.01-14.85,.02-.96,.23-1.34,.06-8.05,.17-4.06,.2-8.41,.2-8.41l.14-12.29c-.24-12.05-.26-6.32-.01-20.02,.11-6.19,0-5.29-.11-18-3.12,3.75-4.73,4.35-8.53,5.95-7.82,3.28-14.13,4.1-22.02,1.68-4.85-1.51-11.98-2.29-15.57-8.45-.37,7.8-.81,13.4-.99,20.24-.1,4.06-.44,8.08-.5,11.31-.18,10.07-.12,7.04-.58,20.13-.08,2.29,.2,5.74,0,8.07-.26,1.97-.13,3.57-.21,5.6,.08,5.51-.03,3.57-.05,6.12-.06,7.05,.2,9.69,.31,14.78"/><g id="h"><path class="ag" d="M224.76,760.71c-4.78,1.68-8.62,2.17-13.48,2.64-2.16,0-13.9-1.41-16.42-3.14-3.3-2.25-7.17-6.26-7.17-7.12-.06-1.22,3.05-.73,4.47-.98,5.85-1.04,9.07-1.29,13.34-1.68,7.22-.65,6.87-.95,15.03,0,1.08,.14,10.44,1.51,11.54,1.92,3.43,1.25,1.06,3.99,.37,4.67-2.27,3.02-3.98,1.9-6.7,3.22"/><path class="ag" d="M213.24,749.85c-2.07,0-3.75,.24-7.72,.6-2.1,.2-3.96,.35-6,.59-1.53,.42-3.07,.95-4.58,1.6l-1.31,.54c6.57,1.97,13.21,2.98,19.86,3.02h1.92c2.42-.17,5.03,.26,7.16-2.28-3.46-1.04-6.96-1.6-10.47-1.66-1.3,0-2.6,.09-3.86,.32h-.31v-.02l3.9,.85-3.48-.85h2.08c3.72-.04,7.44,.46,11.12,1.51-1.9,1.51-4.12,1.16-6.17,1.3h-1.05c-1.92,0-3.85-.09-5.77-.26-4.07-.35-8.14-1.07-12.17-2.16,2.73-.94,5.49-1.57,8.27-1.9,2.56-.29,5.14-.42,7.72-.42,5.56,0,11.11,.64,16.63,1.9,.24,.09,1.96,.67,1.33,1.22-6.94,2.04-16.04,5.49-24.52,5.49-6.01,0-11.7-1.72-16.09-6.88,4.61,5.59,10.54,7.44,16.77,7.44,8.29,0,17.11-3.27,24-5.28,.08-.04,.16-.1,.22-.2,.07-.09,.12-.21,.16-.34,.04-.13,.07-.28,.07-.43,0-.15,0-.31-.03-.45-.13-.36-.3-.66-.5-.88-.2-.22-.43-.35-.66-.38-3.19-.57-8.46-1.35-9.25-1.51-3.67-.33-5.64-.5-7.29-.5Z"/></g></g><g id="i"><path class="ad" d="M224.35,759.7c-4.6,1.68-9.25,2.75-13.93,3.22-2.08,0-12.95-1.62-15.37-3.36-3.17-2.25-7.33-6.05-7.33-6.91-.06-1.22,2.94-.73,4.3-.98,5.63-1.04,8.73-1.29,12.84-1.68,6.95-.65,6.62-.95,14.46,0,1.04,.14,10.04,1.51,11.11,1.92,2.68,1.02,3.65,1.2,3.62,1.58,0,.09,.03,.15-.06,.26-2.18,3.02-7.04,4.73-9.65,6.05"/><path class="ag" d="M212.3,749.42c-1.99,0-3.61,.24-7.43,.6-2.02,.2-3.81,.35-5.78,.59-1.48,.42-2.95,.95-4.41,1.6l-1.26,.54c6.32,1.97,12.71,2.98,19.12,3.02h1.85c2.32-.17,4.84,.26,6.89-2.28-3.33-1.04-6.7-1.6-10.07-1.66-1.25,0-2.5,.09-3.71,.32h-.3v-.02l3.75,.85-3.35-.85h2c3.58-.04,7.16,.46,10.7,1.51-1.82,1.51-3.97,1.16-5.93,1.3h-1.01c-1.85,0-3.7-.09-5.55-.26-3.92-.35-7.83-1.07-11.71-2.16,2.63-.94,5.29-1.57,7.96-1.9,2.47-.29,4.95-.42,7.43-.42,5.35,0,10.69,.64,16,1.9,.23,.09,1.89,.67,1.28,1.22-6.68,2.04-15.44,5.49-23.6,5.49-5.78,0-11.26-1.72-15.48-6.88,4.43,5.59,10.15,7.44,16.14,7.44,7.98,0,16.47-3.27,23.1-5.28,.08-.04,.15-.1,.21-.2,.06-.09,.12-.21,.16-.34,.04-.13,.06-.28,.07-.43,0-.15,0-.31-.03-.45-.12-.36-.29-.66-.48-.88-.19-.22-.41-.35-.64-.38-3.07-.57-8.14-1.35-8.9-1.51-3.53-.33-5.43-.5-7.01-.5Z"/></g></g><g id="j"><g><path class="ag" d="M234,769.91c.08-4.62-.17-71.59-.07-76.91,.02-.96,.23-1.34,.06-8.05,.17-4.06,.2-8.41,.2-8.41v-12.05c-.25-12.05-.2-4.34,.13-20.26,.13-6.19,0-5.29-.11-18-3.12,3.75-4.73,4.35-8.53,5.95-7.82,3.28-14.13,4.1-22.02,1.68-4.85-1.51-11.98-2.29-15.57-8.45-.37,7.8-.43,12.67-.61,19.51-.1,4.06-.2,6.74-.26,9.96-.18,10.07,.11,4.89-.34,17.97-.08,2.29,.09,7.44-.09,10.97-.05,3.99-.01,4.13-.09,6.15,.08,5.51,.05,4.64,.03,7.2-.06,7.05-.09,70.29,.02,75.38"/><g id="k"><path class="ag" d="M225.3,633.25c-4.78,1.68-8.62,2.17-13.48,2.64-2.16,0-13.9-1.41-16.42-3.14-3.3-2.25-7.17-6.26-7.17-7.12-.06-1.22,3.05-.73,4.47-.98,5.85-1.04,9.07-1.29,13.34-1.68,7.22-.65,6.87-.95,15.03,0,1.08,.14,10.44,1.51,11.54,1.92,.86,.31,1.25,.37,1.47,.84,.58,1.23-.58,3.33-1.1,3.84-2.27,3.02-3.98,1.9-6.7,3.22"/><path class="ag" d="M213.78,622.39c-2.07,0-3.75,.24-7.72,.6-2.1,.2-3.96,.35-6,.59-1.53,.42-3.07,.95-4.58,1.6l-1.31,.54c6.57,1.97,13.21,2.98,19.86,3.02h1.92c2.42-.17,5.03,.26,7.16-2.28-3.46-1.04-6.96-1.6-10.47-1.66-1.3,0-2.6,.09-3.86,.32h-.31v-.02l3.9,.85-3.48-.85h2.08c3.72-.04,7.44,.46,11.12,1.51-1.9,1.51-4.12,1.16-6.17,1.3h-1.05c-1.92,0-3.85-.09-5.77-.26-4.07-.35-8.14-1.07-12.17-2.16,2.73-.94,5.49-1.57,8.27-1.9,2.56-.29,5.14-.42,7.72-.42,5.56,0,11.11,.64,16.63,1.9,.24,.09,1.96,.67,1.33,1.22-6.94,2.04-16.04,5.49-24.52,5.49-6.01,0-11.7-1.72-16.09-6.88,4.61,5.59,10.54,7.44,16.77,7.44,8.29,0,17.11-3.27,24-5.28,.08-.04,.16-.1,.22-.2,.07-.09,.12-.21,.16-.34,.04-.13,.07-.28,.07-.43,0-.15,0-.31-.03-.45-.13-.36-.3-.66-.5-.88-.2-.22-.43-.35-.66-.38-3.19-.57-8.46-1.35-9.25-1.51-3.67-.33-5.64-.5-7.29-.5Z"/></g></g><path class="ag" d="M230.97,716.5s9,3.49,18.35-7.61c4.33-5.14,9.37-8.13,12.78-10.91,3.95-3.22,5-3.69,6.79-7.36,3.85-7.92,6.63-17.01,6.87-7.77,.21,8.12-10.66,18.4-10.66,18.4,0,0,3.25,.97,9.25-1.11,5.59-1.94,6.88-2.78,8.26-2.78s-2.75,4.43-9.98,6.1c-7.23,1.67-15.34,7.13-17.01,12.41-1.67,5.28-26.76,24.19-26.76,24.19l2.11-23.56Z"/><g><path class="ac" d="M265.35,710.89s-.45-3.11,3.33-5.03,3.82-1.24,3.82-1.24c0,0-.35,5.11-3.23,5.88s-3.91,.38-3.91,.38Z"/><path class="ac" d="M280.27,706.97s-2.77-.32-3.56-4-.2-3.56-.2-3.56c0,0,4.31,1.46,4.32,4.11s-.56,3.45-.56,3.45Z"/><path class="ac" d="M271.04,703.51s.04-3.42,4.43-4.84,4.31-.69,4.31-.69c0,0-1.23,5.43-4.47,5.78s-4.27-.25-4.27-.25Z"/><path class="ac" d="M264.97,700.38s1.06-2.63,4.88-2.42,3.54,.76,3.54,.76c0,0-2.58,3.83-5.19,3.13s-3.23-1.47-3.23-1.47Z"/><path class="ac" d="M272.18,695.22s-2.07-2.66,.43-6.46,2.9-3.18,2.9-3.18c0,0,2.39,4.94,.11,7.2-2.28,2.26-3.44,2.44-3.44,2.44Z"/><path class="ac" d="M274.25,686.42s-2.76-1.82-1.63-6.13,1.69-3.87,1.69-3.87c0,0,3.78,3.84,2.37,6.65s-2.43,3.35-2.43,3.35Z"/><path class="ac" d="M272.8,695.64s-3.52,.11-5.18-4.35-.9-4.41-.9-4.41c0,0,5.65,1.03,6.15,4.35s-.07,4.41-.07,4.41Z"/><path class="ac" d="M260.55,703.06s-2.09-2.45,.13-6.19,2.63-3.17,2.63-3.17c0,0,2.5,4.62,.42,6.88-2.08,2.26-3.18,2.48-3.18,2.48Z"/></g><g id="l"><path class="ad" d="M224.84,631.84c-4.6,1.68-9.25,2.75-13.93,3.22-2.08,0-12.95-1.62-15.37-3.36-3.17-2.25-7.33-6.05-7.33-6.91-.06-1.22,2.94-.73,4.3-.98,5.63-1.04,8.73-1.29,12.84-1.68,6.95-.65,6.62-.95,14.46,0,1.04,.14,10.04,1.51,11.11,1.92,2.68,1.02,3.65,1.2,3.62,1.58,0,.09,.03,.15-.06,.26-2.18,3.02-7.04,4.73-9.65,6.05"/><path class="ag" d="M212.79,621.56c-1.99,0-3.61,.24-7.43,.6-2.02,.2-3.81,.35-5.78,.59-1.48,.42-2.95,.95-4.41,1.6l-1.26,.54c6.32,1.97,12.71,2.98,19.12,3.02h1.85c2.32-.17,4.84,.26,6.89-2.28-3.33-1.04-6.7-1.6-10.07-1.66-1.25,0-2.5,.09-3.71,.32h-.3v-.02l3.75,.85-3.35-.85h2c3.58-.04,7.16,.46,10.7,1.51-1.82,1.51-3.97,1.16-5.93,1.3h-1.01c-1.85,0-3.7-.09-5.55-.26-3.92-.35-7.83-1.07-11.71-2.16,2.63-.94,5.29-1.57,7.96-1.9,2.47-.29,4.95-.42,7.43-.42,5.35,0,10.69,.64,16,1.9,.23,.09,1.89,.67,1.28,1.22-6.68,2.04-15.44,5.49-23.6,5.49-5.78,0-11.26-1.72-15.48-6.88,4.43,5.59,10.15,7.44,16.14,7.44,7.98,0,16.47-3.27,23.1-5.28,.08-.04,.15-.1,.21-.2,.06-.09,.12-.21,.16-.34,.04-.13,.06-.28,.07-.43,0-.15,0-.31-.03-.45-.12-.36-.29-.66-.48-.88-.19-.22-.41-.35-.64-.38-3.07-.57-8.14-1.35-8.9-1.51-3.53-.33-5.43-.5-7.01-.5Z"/></g></g><g id="m"><g><path class="ag" d="M234.37,636.96c.08-4.62,.11-37.63,.2-42.95,.02-.96,.23-1.34,.06-8.05,.17-4.06,.2-8.41,.2-8.41v-12.05c-.25-12.05-.2-4.34,.13-20.26,.13-6.19,0-5.29-.11-18-3.12,3.75-4.73,4.35-8.53,5.95-7.82,3.28-14.13,4.1-22.02,1.68-4.85-1.51-11.98-2.29-15.57-8.45-.37,7.8-.43,12.67-.61,19.51-.1,4.06-.2,6.74-.26,9.96-.18,10.07,.11,4.89-.34,17.97-.08,2.29,.09,7.44-.09,10.97-.05,3.99-.01,4.13-.09,6.15,.08,5.51,.05,4.64,.03,7.2-.06,7.05,.48,33.16,.59,38.24"/><g id="n"><path class="ag" d="M225.95,534.26c-4.78,1.68-8.62,2.17-13.48,2.64-2.16,0-13.9-1.41-16.42-3.14-3.3-2.25-7.17-6.26-7.17-7.12-.06-1.22,3.05-.73,4.47-.98,5.85-1.04,9.07-1.29,13.34-1.68,7.22-.65,6.87-.95,15.03,0,1.08,.14,10.44,1.51,11.54,1.92,3.43,1.25,1.06,3.99,.37,4.67-2.27,3.02-3.98,1.9-6.7,3.22"/><path class="ag" d="M214.42,523.4c-2.07,0-3.75,.24-7.72,.6-2.1,.2-3.96,.35-6,.59-1.53,.42-3.07,.95-4.58,1.6l-1.31,.54c6.57,1.97,13.21,2.98,19.86,3.02h1.92c2.42-.17,5.03,.26,7.16-2.28-3.46-1.04-6.96-1.6-10.47-1.66-1.3,0-2.6,.09-3.86,.32h-.31v-.02l3.9,.85-3.48-.85h2.08c3.72-.04,7.44,.46,11.12,1.51-1.9,1.51-4.12,1.16-6.17,1.3h-1.05c-1.92,0-3.85-.09-5.77-.26-4.07-.35-8.14-1.07-12.17-2.16,2.73-.94,5.49-1.57,8.27-1.9,2.56-.29,5.14-.42,7.72-.42,5.56,0,11.11,.64,16.63,1.9,.24,.09,1.96,.67,1.33,1.22-6.94,2.04-16.04,5.49-24.52,5.49-6.01,0-11.7-1.72-16.09-6.88,4.61,5.59,10.54,7.44,16.77,7.44,8.29,0,17.11-3.27,24-5.28,.08-.04,.16-.1,.22-.2,.07-.09,.12-.21,.16-.34,.04-.13,.07-.28,.07-.43,0-.15,0-.31-.03-.45-.13-.36-.3-.66-.5-.88-.2-.22-.43-.35-.66-.38-3.19-.57-8.46-1.35-9.25-1.51-3.67-.33-5.64-.5-7.29-.5Z"/></g></g><path class="ag" d="M182.33,618.42c-.1-.14-4.99-6.34-5.08-6.49-3.27-5.91-3.64-7.54-11.18-16.29-8.28-9.61-3.57-5.81-12.35-14.32-.04-.04-1.28-1.56-1.31-1.6l-2.27-2.71c-.85-1.09,1.48-.61,2.5,.32,.28,.26,1.07,1.22,1.37,1.52,1.77,1.77,4.56,3.78,6.76,6.14,.86,.92,2.34-.04,1.86-1.2-1.91-4.54-4.4-11.08-6.17-18.01-.03-.13-.36-1.51-.39-1.63-.35-1.37,1.2,0,1.7,1.31,3.05,7.93,7.84,20.28,11.27,23.18,14.39,12.22,15.85,20.09,23.62,16.15,4.83-2.45-.41,16.91-.7,18.27-.02,.11,4.16,4.57,4.11,4.67-.5,.92-6.1,.81-13.73-9.3Z"/><g><path class="ac" d="M159.22,594.04s-1.78-2.91,1.16-6.44,3.27-2.87,3.27-2.87c0,0,1.85,5.24-.7,7.25s-3.74,2.06-3.74,2.06Z"/><path class="ac" d="M154.35,588.49s-2.72-1.89-1.48-6.17c1.23-4.29,1.79-3.83,1.79-3.83,0,0,3.69,3.93,2.21,6.71s-2.51,3.29-2.51,3.29Z"/><path class="ac" d="M161.51,585.56s-3.22-.63-3.81-5.01c-.59-4.38,.09-4.18,.09-4.18,0,0,4.91,2.1,4.68,5.21s-.97,3.98-.97,3.98Z"/><path class="ac" d="M153.31,574.48s.64-2.61,4.24-2.92,3.42,.24,3.42,.24c0,0-1.9,3.94-4.44,3.63s-3.22-.95-3.22-.95Z"/><path class="ac" d="M154.79,571.87s.51-2.51,3.94-2.95,3.27,.09,3.27,.09c0,0-1.66,3.83-4.1,3.63s-3.11-.78-3.11-.78Z"/></g><g id="o"><path class="ad" d="M225.48,532.85c-4.6,1.68-9.25,2.75-13.93,3.22-2.08,0-12.95-1.62-15.37-3.36-3.17-2.25-7.33-6.05-7.33-6.91-.06-1.22,2.94-.73,4.3-.98,5.63-1.04,8.73-1.29,12.84-1.68,6.95-.65,6.62-.95,14.46,0,1.04,.14,10.04,1.51,11.11,1.92,2.68,1.02,3.65,1.2,3.62,1.58,0,.09,.03,.15-.06,.26-2.18,3.02-7.04,4.73-9.65,6.05"/><path class="ag" d="M213.43,522.57c-1.99,0-3.61,.24-7.43,.6-2.02,.2-3.81,.35-5.78,.59-1.48,.42-2.95,.95-4.41,1.6l-1.26,.54c6.32,1.97,12.71,2.98,19.12,3.02h1.85c2.32-.17,4.84,.26,6.89-2.28-3.33-1.04-6.7-1.6-10.07-1.66-1.25,0-2.5,.09-3.71,.32h-.3v-.02l3.75,.85-3.35-.85h2c3.58-.04,7.16,.46,10.7,1.51-1.82,1.51-3.97,1.16-5.93,1.3h-1.01c-1.85,0-3.7-.09-5.55-.26-3.92-.35-7.83-1.07-11.71-2.16,2.63-.94,5.29-1.57,7.96-1.9,2.47-.29,4.95-.42,7.43-.42,5.35,0,10.69,.64,16,1.9,.23,.09,1.89,.67,1.28,1.22-6.68,2.04-15.44,5.49-23.6,5.49-5.78,0-11.26-1.72-15.48-6.88,4.43,5.59,10.15,7.44,16.14,7.44,7.98,0,16.47-3.27,23.1-5.28,.08-.04,.15-.1,.21-.2,.06-.09,.12-.21,.16-.34,.04-.13,.06-.28,.07-.43,0-.15,0-.31-.03-.45-.12-.36-.29-.66-.48-.88-.19-.22-.41-.35-.64-.38-3.07-.57-8.14-1.35-8.9-1.51-3.53-.33-5.43-.5-7.01-.5Z"/></g></g><g id="p"><g><path class="ag" d="M234.92,541.09c.08-4.62,.1-46.99,.19-52.31,.02-.96,.23-1.34,.06-8.05,.17-4.06,.2-8.41,.2-8.41v-12.05c-.25-12.05-.2-4.34,.13-20.26,.13-6.19,0-5.29-.11-18-3.12,3.75-4.73,4.35-8.53,5.95-7.82,3.28-14.13,4.1-22.02,1.68-4.85-1.51-11.98-2.29-15.57-8.45-.37,7.8-.43,12.67-.61,19.51-.1,4.06-.2,6.74-.26,9.96-.18,10.07,.11,4.89-.34,17.97-.08,2.29,.09,7.44-.09,10.97-.05,3.99-.01,4.13-.09,6.15,.08,5.51,.05,4.64,.03,7.2-.06,7.05,.1,49.21,.21,54.3"/><g id="q"><path class="ag" d="M226.49,429.03c-4.78,1.68-8.62,2.17-13.48,2.64-2.16,0-13.9-1.41-16.42-3.14-3.3-2.25-7.17-6.26-7.17-7.12-.06-1.22,3.05-.73,4.47-.98,5.85-1.04,9.07-1.29,13.34-1.68,7.22-.65,6.87-.95,15.03,0,1.08,.14,10.44,1.51,11.54,1.92,3.43,1.25,1.06,3.99,.37,4.67-2.27,3.02-3.98,1.9-6.7,3.22"/><path class="ag" d="M214.96,418.17c-2.07,0-3.75,.24-7.72,.6-2.1,.2-3.96,.35-6,.59-1.53,.42-3.07,.95-4.58,1.6l-1.31,.54c6.57,1.97,13.21,2.98,19.86,3.02h1.92c2.42-.17,5.03,.26,7.16-2.28-3.46-1.04-6.96-1.6-10.47-1.66-1.3,0-2.6,.09-3.86,.32h-.31v-.02l3.9,.85-3.48-.85h2.08c3.72-.04,7.44,.46,11.12,1.51-1.9,1.51-4.12,1.16-6.17,1.3h-1.05c-1.92,0-3.85-.09-5.77-.26-4.07-.35-8.14-1.07-12.17-2.16,2.73-.94,5.49-1.57,8.27-1.9,2.56-.29,5.14-.42,7.72-.42,5.56,0,11.11,.64,16.63,1.9,.24,.09,1.96,.67,1.33,1.22-6.94,2.04-16.04,5.49-24.52,5.49-6.01,0-11.7-1.72-16.09-6.88,4.61,5.59,10.54,7.44,16.77,7.44,8.29,0,17.11-3.27,24-5.28,.08-.04,.16-.1,.22-.2,.07-.09,.12-.21,.16-.34,.04-.13,.07-.28,.07-.43,0-.15,0-.31-.03-.45-.13-.36-.3-.66-.5-.88-.2-.22-.43-.35-.66-.38-3.19-.57-8.46-1.35-9.25-1.51-3.67-.33-5.64-.5-7.29-.5Z"/></g></g><polygon class="ag" points="233.94 507.36 255.4 495.02 255.63 498.92 233 519.07 225.68 515.62 233.94 507.36"/><path class="ae" d="M236.95,513.35c-2.1-1.89-5.14,1.85-4.02,4.09,1.12,2.25,.51,5.29,1.32,9.6,.81,4.32,2.03,7.18,2.47,5.9,.68-1.99,.9-7.95-.87-12.27-1.63-3.98,3.37-5.29,1.1-7.33Z"/><path class="af" d="M219.16,478.45c.48-.44,1.14,.18,1.14,1.07s-.04,2.14,.55,1.66,1.59-.52,1.59-.3-.11,.18,.3,.22,.63,.15,1,.48,.04,.66,.37,.33,.7-1.44,1.07-1.18,.07,.22,.37,0,.04-.85,.33-.7,.3-.04,.48-.15-.59,.77,.26,1.29,2.29,.85,2.95,1.88,.77,2.03,1.44,2.32,.92-.11,.81,.55-.33,1.51,.15,1.59,.81,.22,.48,.52-.92-.07-.33,.3,.74-.33,.59,.37,0,1.44,.26,1.55,.18,0,.15,.55,.04-.81-.04,.55,.09,2.04,.4,2.29,.6,1.36,.5,2.06-.35,.9-.1,1.46,.05,2.66-.05,2.97-.9,1.51-.45,1.66,.15,1.01-.2,1.16,.2,1.21-.15,1.41-1.21,.2-1.06,.6,.6,.4-.25,.65-.8-.3-.85,.25,1.06,.4-.05,.55-1.66,.45-1.56,.96-.55,.4-.9,.05-.85-.9-.85-.4-.65,.35-.7-.25,.45-.5-.05-.6-.7,0-.65-.4,.8-.4,.05-.4-.9,.35-1.81-1.21-1.31-2.97-1.61-2.97-.85-.65-.4-.7,.25-.1-.05-.7-.35-1.46-.25-1.66,.2,0,0-.7-.3-.9-.15-1.06,0-.7-.15-1.16-.3-.9-.15-1.01,.08,0,.1-.4c.05-1.16,.1-1.36-.05-1.56s-.6-1.36-.2-1.76,.75-.25,.1-1.06-.7-.8-.4-1.31,.65-1.46,.1-1.76-1.21-.9-.75-1.06,.6-1.06,.2-1.16-.05-.45,.05-.6,.5,.35-.15-.9-1.86-2.46-1.81-3.17,.43-1.02,.43-1.02Z"/><g id="r"><path class="ad" d="M226.02,427.62c-4.6,1.68-9.25,2.75-13.93,3.22-2.08,0-12.95-1.62-15.37-3.36-3.17-2.25-7.33-6.05-7.33-6.91-.06-1.22,2.94-.73,4.3-.98,5.63-1.04,8.73-1.29,12.84-1.68,6.95-.65,6.62-.95,14.46,0,1.04,.14,10.04,1.51,11.11,1.92,2.68,1.02,3.65,1.2,3.62,1.58,0,.09,.03,.15-.06,.26-2.18,3.02-7.04,4.73-9.65,6.05"/><path class="ag" d="M213.97,417.34c-1.99,0-3.61,.24-7.43,.6-2.02,.2-3.81,.35-5.78,.59-1.48,.42-2.95,.95-4.41,1.6l-1.26,.54c6.32,1.97,12.71,2.98,19.12,3.02h1.85c2.32-.17,4.84,.26,6.89-2.28-3.33-1.04-6.7-1.6-10.07-1.66-1.25,0-2.5,.09-3.71,.32h-.3v-.02l3.75,.85-3.35-.85h2c3.58-.04,7.16,.46,10.7,1.51-1.82,1.51-3.97,1.16-5.93,1.3h-1.01c-1.85,0-3.7-.09-5.55-.26-3.92-.35-7.83-1.07-11.71-2.16,2.63-.94,5.29-1.57,7.96-1.9,2.47-.29,4.95-.42,7.43-.42,5.35,0,10.69,.64,16,1.9,.23,.09,1.89,.67,1.28,1.22-6.68,2.04-15.44,5.49-23.6,5.49-5.78,0-11.26-1.72-15.48-6.88,4.43,5.59,10.15,7.44,16.14,7.44,7.98,0,16.47-3.27,23.1-5.28,.08-.04,.15-.1,.21-.2,.06-.09,.12-.21,.16-.34,.04-.13,.06-.28,.07-.43,0-.15,0-.31-.03-.45-.12-.36-.29-.66-.48-.88-.19-.22-.41-.35-.64-.38-3.07-.57-8.14-1.35-8.9-1.51-3.53-.33-5.43-.5-7.01-.5Z"/></g></g><g id="s"><g><path class="ag" d="M235.53,428.67c.08-4.62-.52-34.58-.42-39.9,.02-.96,.23-1.34,.06-8.05,.17-4.06,.2-8.41,.2-8.41v-12.05c-.25-12.05-.2-4.34,.13-20.26,.13-6.19,0-5.29-.11-18-3.12,3.75-4.73,4.35-8.53,5.95-7.82,3.28-14.13,4.1-22.02,1.68-4.85-1.51-11.98-2.29-15.57-8.45-.37,7.8-.43,12.67-.61,19.51-.1,4.06-.2,6.74-.26,9.96-.18,10.07,.11,4.89-.34,17.97-.08,2.29,.09,7.44-.09,10.97-.05,3.99-.01,4.13-.09,6.15,.08,5.51,.05,4.64,.03,7.2-.06,7.05,.45,49.36,.56,54.45"/><g id="t"><path class="ag" d="M226.49,329.01c-4.78,1.68-8.62,2.17-13.48,2.64-2.16,0-13.9-1.41-16.42-3.14-3.3-2.25-7.17-6.26-7.17-7.12-.06-1.22,3.05-.73,4.47-.98,5.85-1.04,9.07-1.29,13.34-1.68,7.22-.65,6.87-.95,15.03,0,1.08,.14,10.44,1.51,11.54,1.92,3.43,1.25,1.06,3.99,.37,4.67-2.27,3.02-3.98,1.9-6.7,3.22"/><path class="ag" d="M214.96,318.16c-2.07,0-3.75,.24-7.72,.6-2.1,.2-3.96,.35-6,.59-1.53,.42-3.07,.95-4.58,1.6l-1.31,.54c6.57,1.97,13.21,2.98,19.86,3.02h1.92c2.42-.17,5.03,.26,7.16-2.28-3.46-1.04-6.96-1.6-10.47-1.66-1.3,0-2.6,.09-3.86,.32h-.31v-.02l3.9,.85-3.48-.85h2.08c3.72-.04,7.44,.46,11.12,1.51-1.9,1.51-4.12,1.16-6.17,1.3h-1.05c-1.92,0-3.85-.09-5.77-.26-4.07-.35-8.14-1.07-12.17-2.16,2.73-.94,5.49-1.57,8.27-1.9,2.56-.29,5.14-.42,7.72-.42,5.56,0,11.11,.64,16.63,1.9,.24,.09,1.96,.67,1.33,1.22-6.94,2.04-16.04,5.49-24.52,5.49-6.01,0-11.7-1.72-16.09-6.88,4.61,5.59,10.54,7.44,16.77,7.44,8.29,0,17.11-3.27,24-5.28,.08-.04,.16-.1,.22-.2,.07-.09,.12-.21,.16-.34,.04-.13,.07-.28,.07-.43,0-.15,0-.31-.03-.45-.13-.36-.3-.66-.5-.88-.2-.22-.43-.35-.66-.38-3.19-.57-8.46-1.35-9.25-1.51-3.67-.33-5.64-.5-7.29-.5Z"/></g></g><polygon class="ag" points="194.94 400.91 163.44 372.95 164.15 367.29 197.06 388.17 194.94 400.91"/><path class="af" d="M187.58,387.99c.48-.44,1.14,.18,1.14,1.07s-.04,2.14,.55,1.66,1.59-.52,1.59-.3-.11,.18,.3,.22,.63,.15,1,.48,.04,.66,.37,.33,.7-1.44,1.07-1.18,.07,.22,.37,0,.04-.85,.33-.7,.3-.04,.48-.15-.59,.77,.26,1.29,2.29,.85,2.95,1.88,.77,2.03,1.44,2.32,.92-.11,.81,.55-.33,1.51,.15,1.59,.81,.22,.48,.52-.92-.07-.33,.3,.74-.33,.59,.37,0,1.44,.26,1.55,.18,0,.15,.55,.04-.81-.04,.55,.09,2.04,.4,2.29,.6,1.36,.5,2.06-.35,.9-.1,1.46,.05,2.66-.05,2.97-.9,1.51-.45,1.66,.15,1.01-.2,1.16,.2,1.21-.15,1.41-1.21,.2-1.06,.6,.6,.4-.25,.65-.8-.3-.85,.25,1.06,.4-.05,.55-1.66,.45-1.56,.96-.55,.4-.9,.05-.85-.9-.85-.4-.65,.35-.7-.25,.45-.5-.05-.6-.7,0-.65-.4,.8-.4,.05-.4-.9,.35-1.81-1.21c-.9-1.56-1.31-2.97-1.61-2.97s-.85-.65-.4-.7,.25-.1-.05-.7-.35-1.46-.25-1.66,.2,0,0-.7-.3-.9-.15-1.06,0-.7-.15-1.16-.3-.9-.15-1.01,.08,0,.1-.4c.05-1.16,.1-1.36-.05-1.56s-.6-1.36-.2-1.76,.75-.25,.1-1.06-.7-.8-.4-1.31,.65-1.46,.1-1.76-1.21-.9-.75-1.06,.6-1.06,.2-1.16-.05-.45,.05-.6,.5,.35-.15-.9-1.86-2.46-1.81-3.17,.43-1.02,.43-1.02Z"/><path class="ae" d="M188.73,398.77s-2.04,5.35-2.82,5.68-2.71,1.36-2.1,1.64-2.86,3.33-2.39,4.93,0,3.61,.75,4.79,1.08,1.74,.89,3.85-1.12,4.06-.38,4.83,1.83,.8,1.78-.75-.13-8.39,.66-8.59,1.83-.7,1.83,.23-.61,3,.89,2.67,1.64-1.5,1.41-3.24-.42-1.6,.47-2.35,.8-2.02,1.13-7.51-.23-8.96-.23-8.96l-.56-1.5-1.31,4.27Z"/><g id="u"><path class="ad" d="M227.05,328.44c-4.6,1.68-9.25,2.75-13.93,3.22-2.08,0-12.95-1.62-15.37-3.36-3.17-2.25-7.33-6.05-7.33-6.91-.06-1.22,2.94-.73,4.3-.98,5.63-1.04,8.73-1.29,12.84-1.68,6.95-.65,6.62-.95,14.46,0,1.04,.14,10.04,1.51,11.11,1.92,2.68,1.02,3.65,1.2,3.62,1.58,0,.09,.03,.15-.06,.26-2.18,3.02-7.04,4.73-9.65,6.05"/><path class="ag" d="M215,318.16c-1.99,0-3.61,.24-7.43,.6-2.02,.2-3.81,.35-5.78,.59-1.48,.42-2.95,.95-4.41,1.6l-1.26,.54c6.32,1.97,12.71,2.98,19.12,3.02h1.85c2.32-.17,4.84,.26,6.89-2.28-3.33-1.04-6.7-1.6-10.07-1.66-1.25,0-2.5,.09-3.71,.32h-.3v-.02l3.75,.85-3.35-.85h2c3.58-.04,7.16,.46,10.7,1.51-1.82,1.51-3.97,1.16-5.93,1.3h-1.01c-1.85,0-3.7-.09-5.55-.26-3.92-.35-7.83-1.07-11.71-2.16,2.63-.94,5.29-1.57,7.96-1.9,2.47-.29,4.95-.42,7.43-.42,5.35,0,10.69,.64,16,1.9,.23,.09,1.89,.67,1.28,1.22-6.68,2.04-15.44,5.49-23.6,5.49-5.78,0-11.26-1.72-15.48-6.88,4.43,5.59,10.15,7.44,16.14,7.44,7.98,0,16.47-3.27,23.1-5.28,.08-.04,.15-.1,.21-.2,.06-.09,.12-.21,.16-.34,.04-.13,.06-.28,.07-.43,0-.15,0-.31-.03-.45-.12-.36-.29-.66-.48-.88-.19-.22-.41-.35-.64-.38-3.07-.57-8.14-1.35-8.9-1.51-3.53-.33-5.43-.5-7.01-.5Z"/></g></g></g><g id="v"/><g id="w"><g id="x"/><g id="y"/></g><g id="a`"><g id="aa"/><g id="ab"/></g></svg>